<svg width="32" height="37" viewBox="0 0 32 37" fill="none" xmlns="http://www.w3.org/2000/svg">
<g filter="url(#filter0_f_22_116)">
<path d="M25.75 8.8335C23.9375 5.2085 7.02084 7.021 7.02084 7.021L5.20834 8.8335V28.2423C5.20834 32.0486 7.625 33.0002 8.83333 33.0002H23.3333C26.2333 33.0002 26.9583 28.771 26.9583 26.6564C26.9583 26.6564 27.5625 12.4585 25.75 8.8335Z" fill="#AEFFFF"/>
<path fill-rule="evenodd" clip-rule="evenodd" d="M6.07613 7.50874C6.16472 7.35121 6.2497 7.11509 6.30399 6.74873H7.60997C7.54381 7.32923 7.40989 7.7757 7.20869 8.13334C6.92605 8.63589 6.53153 8.91444 6.24808 9.11457C6.23464 9.12406 6.22145 9.13337 6.20853 9.14253C5.92319 9.3445 5.75913 9.46101 5.60105 9.77799C5.44289 10.0947 5.29724 10.6625 5.29724 11.7036V28.9747C5.29724 30.5105 6.51796 31.7162 8.06999 31.7162H22.8904C24.4425 31.7162 25.661 30.5104 25.661 28.9747V11.7035C25.661 10.5912 25.5223 9.96952 25.368 9.62534C25.2138 9.28116 25.0689 9.17461 24.8105 8.98782C24.7876 8.97127 24.7636 8.95416 24.7385 8.93636C24.4812 8.75317 24.1216 8.49715 23.8602 8.03882C23.6692 7.70425 23.5442 7.28918 23.4806 6.74866H24.7887C24.8398 7.06845 24.9145 7.27454 24.9906 7.40782C25.1092 7.61589 25.2462 7.71412 25.4914 7.88987C25.5183 7.90921 25.5466 7.92948 25.5763 7.95095C25.876 8.16749 26.2904 8.51599 26.5548 9.10591C26.8192 9.69589 26.9583 10.4898 26.9583 11.7036V28.9748C26.9583 31.1965 25.1356 33.0001 22.8905 33.0001H8.06999C5.82474 33.0001 3.99986 31.1965 4 28.9748V11.7036C4 10.5486 4.15114 9.78211 4.436 9.21122C4.72086 8.6402 5.14832 8.31313 5.45352 8.09693C5.47097 8.08458 5.48798 8.07256 5.50457 8.06085C5.77826 7.86758 5.93769 7.755 6.07613 7.50874Z" fill="white"/>
<path d="M5.20834 4V7.625H15.4792H25.75V4H5.20834Z" fill="#CDAB4D"/>
</g>
<path d="M25.75 8.8335C23.9375 5.2085 7.02084 7.021 7.02084 7.021L5.20834 8.8335V28.2423C5.20834 32.0486 7.625 33.0002 8.83333 33.0002H23.3333C26.2333 33.0002 26.9583 28.771 26.9583 26.6564C26.9583 26.6564 27.5625 12.4585 25.75 8.8335Z" fill="#AEFFFF"/>
<path fill-rule="evenodd" clip-rule="evenodd" d="M6.07613 7.50874C6.16472 7.35121 6.2497 7.11509 6.30399 6.74873H7.60997C7.54381 7.32923 7.40989 7.7757 7.20869 8.13334C6.92605 8.63589 6.53153 8.91444 6.24808 9.11457C6.23464 9.12406 6.22145 9.13337 6.20853 9.14253C5.92319 9.3445 5.75913 9.46101 5.60105 9.77799C5.44289 10.0947 5.29724 10.6625 5.29724 11.7036V28.9747C5.29724 30.5105 6.51796 31.7162 8.06999 31.7162H22.8904C24.4425 31.7162 25.661 30.5104 25.661 28.9747V11.7035C25.661 10.5912 25.5223 9.96952 25.368 9.62534C25.2138 9.28116 25.0689 9.17461 24.8105 8.98782C24.7876 8.97127 24.7636 8.95416 24.7385 8.93636C24.4812 8.75317 24.1216 8.49715 23.8602 8.03882C23.6692 7.70425 23.5442 7.28918 23.4806 6.74866H24.7887C24.8398 7.06845 24.9145 7.27454 24.9906 7.40782C25.1092 7.61589 25.2462 7.71412 25.4914 7.88987C25.5183 7.90921 25.5466 7.92948 25.5763 7.95095C25.876 8.16749 26.2904 8.51599 26.5548 9.10591C26.8192 9.69589 26.9583 10.4898 26.9583 11.7036V28.9748C26.9583 31.1965 25.1356 33.0001 22.8905 33.0001H8.06999C5.82474 33.0001 3.99986 31.1965 4 28.9748V11.7036C4 10.5486 4.15114 9.78211 4.436 9.21122C4.72086 8.6402 5.14832 8.31313 5.45352 8.09693C5.47097 8.08458 5.48798 8.07256 5.50457 8.06085C5.77826 7.86758 5.93769 7.755 6.07613 7.50874Z" fill="white"/>
<path d="M5.20834 4V7.625H15.4792H25.75V4H5.20834Z" fill="#CDAB4D"/>
<defs>
<filter id="filter0_f_22_116" x="0" y="0" width="31.055" height="37.0001" filterUnits="userSpaceOnUse" color-interpolation-filters="sRGB">
<feFlood flood-opacity="0" result="BackgroundImageFix"/>
<feBlend mode="normal" in="SourceGraphic" in2="BackgroundImageFix" result="shape"/>
<feGaussianBlur stdDeviation="2" result="effect1_foregroundBlur_22_116"/>
</filter>
</defs>
</svg>
