<svg width="38" height="44" viewBox="0 0 38 44" fill="none" xmlns="http://www.w3.org/2000/svg">
<g filter="url(#filter0_f_22_117)">
<path d="M18.7121 9.30298C18.7323 9.29882 18.7535 9.29936 18.7736 9.30396C18.7937 9.30859 18.8129 9.31683 18.8293 9.32935L18.8322 9.33228C19.8629 10.1101 22.114 11.9648 24.1037 14.6536C26.0941 17.3433 27.8 20.8359 27.8 24.9006C27.8 30.2861 23.3439 34.6028 17.9758 34.2825C12.49 33.955 8.66745 28.6608 9.38692 23.0481V23.0471C9.78515 19.9262 11.1523 17.1942 12.7326 14.9788C12.7605 15.1008 12.7907 15.2316 12.8205 15.3674C12.8989 15.7249 12.9849 16.1206 13.0744 16.4016C13.1148 16.5282 13.175 16.6978 13.2688 16.8254C13.3102 16.8818 13.4257 17.0252 13.632 17.0676C13.8915 17.1209 14.0802 16.9814 14.1682 16.8821L14.1721 16.8782C14.2422 16.7971 14.3458 16.6381 14.4543 16.467C14.5727 16.2805 14.7238 16.0355 14.8967 15.7493C15.2429 15.1761 15.684 14.4292 16.1467 13.6389C17.0722 12.0582 18.0881 10.2959 18.6125 9.37915L18.6154 9.37427C18.6255 9.35631 18.6389 9.34058 18.6555 9.32837C18.6722 9.3161 18.6918 9.30718 18.7121 9.30298Z" fill="#FF6723" stroke="white"/>
<path d="M25.5142 27.2325C25.5142 30.9858 22.2465 34.0028 18.2722 33.8663C13.9821 33.7214 11.0403 29.7954 11.6699 25.7514C12.579 19.9533 18.5312 16.2278 18.5312 16.2278C18.5312 16.2278 25.5142 20.5986 25.5142 27.2325Z" fill="#FFB02E"/>
</g>
<path d="M18.5598 8.5686C18.6854 8.54257 18.8155 8.54393 18.9406 8.57251C19.0657 8.60111 19.1835 8.65664 19.2854 8.73462L19.2844 8.7356C20.348 9.53838 22.6593 11.4412 24.7063 14.2073C26.7541 16.9746 28.55 20.6212 28.55 24.9006C28.55 30.7044 23.7434 35.3783 17.9309 35.0315V35.0305C11.9422 34.6729 7.87719 28.9237 8.64278 22.9524L8.74336 22.2805C9.31645 18.9514 10.9128 16.0929 12.6311 13.8528C12.6734 13.7974 12.7658 13.7088 12.9084 13.72C13.0351 13.73 13.113 13.815 13.1457 13.8567C13.2158 13.9464 13.2664 14.081 13.3059 14.2034C13.3902 14.4653 13.4736 14.8444 13.5529 15.2063C13.6299 15.5573 13.7041 15.8935 13.7766 16.1321C13.7902 16.1109 13.8064 16.0895 13.8215 16.0657C13.9356 15.8858 14.0822 15.6451 14.2541 15.3606C14.5977 14.7919 15.0371 14.0492 15.4992 13.26C16.4234 11.6817 17.4377 9.92111 17.9611 9.0061C18.0235 8.89511 18.1095 8.79924 18.2121 8.72388C18.3156 8.64793 18.4341 8.59465 18.5598 8.5686Z" fill="#FF6723" stroke="white" stroke-width="0.5"/>
<path d="M25.5142 27.2325C25.5142 30.9858 22.2465 34.0028 18.2722 33.8663C13.9821 33.7214 11.0403 29.7954 11.6699 25.7514C12.579 19.9533 18.5312 16.2278 18.5312 16.2278C18.5312 16.2278 25.5142 20.5986 25.5142 27.2325Z" fill="#FFB02E"/>
<defs>
<filter id="filter0_f_22_117" x="2.86102e-06" y="4.86374e-05" width="37.1" height="43.5995" filterUnits="userSpaceOnUse" color-interpolation-filters="sRGB">
<feFlood flood-opacity="0" result="BackgroundImageFix"/>
<feBlend mode="normal" in="SourceGraphic" in2="BackgroundImageFix" result="shape"/>
<feGaussianBlur stdDeviation="4.4" result="effect1_foregroundBlur_22_117"/>
</filter>
</defs>
</svg>
