<svg width="239" height="283" viewBox="0 0 239 283" fill="none" xmlns="http://www.w3.org/2000/svg" xmlns:xlink="http://www.w3.org/1999/xlink">
<g filter="url(#filter0_f_48_7)">
<path d="M105.258 183.061C105.258 178.995 106.905 175.095 109.838 172.219C112.771 169.344 116.749 167.729 120.896 167.729C125.044 167.729 129.022 169.344 131.954 172.219C134.887 175.095 136.535 178.995 136.535 183.061C136.535 187.128 134.887 191.028 131.954 193.903C129.022 196.779 125.044 198.394 120.896 198.394C116.749 198.394 112.771 196.779 109.838 193.903C106.905 191.028 105.258 187.128 105.258 183.061Z" fill="#F7E06D"/>
<path fill-rule="evenodd" clip-rule="evenodd" d="M75.2521 127.833L71.9575 98.8129C71.5396 95.0932 71.5396 91.3397 71.9575 87.62L72.1973 85.5245C73.5344 73.7784 79.2408 62.9277 88.2251 55.0475C97.2095 47.1672 108.841 42.8105 120.896 42.8105C132.951 42.8105 144.583 47.1672 153.567 55.0475C162.552 62.9277 168.258 73.7784 169.595 85.5245L169.835 87.62C170.252 91.3476 170.252 95.0785 169.835 98.8129L166.54 127.843L173.703 128.395C179.188 128.823 184.369 131.041 188.417 134.695C192.465 138.349 195.148 143.228 196.035 148.552C199.85 171.406 199.85 194.716 196.035 217.57C195.148 222.895 192.465 227.774 188.417 231.428C184.369 235.082 179.188 237.3 173.703 237.728L158.106 238.954C133.334 240.897 108.458 240.897 83.6866 238.954L68.0896 237.728C62.6043 237.3 57.4235 235.082 53.3753 231.428C49.327 227.774 46.6449 222.895 45.7575 217.57C41.9422 194.716 41.9422 171.406 45.7575 148.552C46.6449 143.228 49.327 138.349 53.3753 134.695C57.4235 131.041 62.6043 128.823 68.0896 128.395L75.2521 127.833ZM116.997 58.3549C121.366 57.8514 125.794 58.2001 130.025 59.3809C134.256 60.5617 138.207 62.5513 141.651 65.2352C145.095 67.919 147.963 71.2442 150.091 75.0193C152.219 78.7943 153.565 82.9447 154.05 87.2316L154.29 89.3271C154.582 91.9234 154.582 94.5266 154.29 97.1365L150.943 126.678C130.932 125.419 110.86 125.419 90.8491 126.678L87.5128 97.1365C87.2222 94.5412 87.2222 91.9224 87.5128 89.3271L87.7422 87.2316C88.5738 79.8858 91.9183 73.0326 97.2308 67.7888C102.543 62.545 109.51 59.2198 116.997 58.3549ZM156.865 142.47C132.924 140.599 108.869 140.599 84.9272 142.47L69.3407 143.697C67.3385 143.85 65.4467 144.657 63.9684 145.99C62.4901 147.323 61.5109 149.103 61.1877 151.047C57.6477 172.256 57.6477 193.888 61.1877 215.097C61.5088 217.042 62.4871 218.825 63.9656 220.159C65.4441 221.494 67.337 222.303 69.3407 222.456L84.9376 223.683C108.875 225.554 132.917 225.554 156.865 223.683L172.462 222.456C174.464 222.301 176.354 221.491 177.831 220.156C179.307 218.822 180.284 217.04 180.605 215.097C184.145 193.888 184.145 172.256 180.605 151.047C180.284 149.103 179.307 147.321 177.831 145.987C176.354 144.652 174.464 143.842 172.462 143.687L156.865 142.47Z" fill="#F7E06D"/>
<use xlink:href="#stroke0_48_7" transform="translate(56.0187 80.4383) scale(0.0172414) rotate(-25.0714)"/>
<use xlink:href="#stroke0_48_7" transform="translate(59.0429 84.435) scale(0.0172414) rotate(-116.315)"/>
<use xlink:href="#stroke0_48_7" transform="translate(58.9212 75.352) scale(0.0172414) rotate(14.453)"/>
<use xlink:href="#stroke0_48_7" transform="translate(60.6283 74.145) scale(0.0172414) rotate(21.9484)"/>
<use xlink:href="#stroke0_48_7" transform="translate(59.5806 76.9495) scale(0.0172414) rotate(-35.27)"/>
<use xlink:href="#stroke0_48_7" transform="translate(69.5333 76.6135) scale(0.0172414) rotate(121.332)"/>
<use xlink:href="#stroke0_48_7" transform="translate(67.0771 73.9974) scale(0.0172414) rotate(49.7925)"/>
<use xlink:href="#stroke0_48_7" transform="translate(68.8581 75.1551) scale(0.0172414) rotate(58.8048)"/>
<use xlink:href="#stroke0_48_7" transform="translate(69.0518 76.456) scale(0.0172414) rotate(52.4187)"/>
<use xlink:href="#stroke0_48_7" transform="translate(68.5813 86.5633) scale(0.0172414) rotate(-132.789)"/>
<use xlink:href="#stroke0_48_7" transform="translate(67.3672 87.9452) scale(0.0172414) rotate(-122.186)"/>
<use xlink:href="#stroke0_48_7" transform="translate(64.881 88.4946) scale(0.0172414) rotate(-99.3154)"/>
<use xlink:href="#stroke0_48_7" transform="translate(64.9357 89.9474) scale(0.0172414) rotate(-119.208)"/>
<use xlink:href="#stroke0_48_7" transform="translate(60.8129 88.2523) scale(0.0172414) rotate(-73.9937)"/>
<use xlink:href="#stroke0_48_7" transform="translate(64.1503 90.0501) scale(0.0172414) rotate(-149.302)"/>
<use xlink:href="#stroke0_48_7" transform="translate(57.7301 83.4511) scale(0.0172414) rotate(-20.7716)"/>
<use xlink:href="#stroke0_48_7" transform="translate(61.4556 88.2343) scale(0.0172414) rotate(-144.643)"/>
<use xlink:href="#stroke0_48_7" transform="translate(57.1277 79.4926) scale(0.0172414) rotate(1.28385)"/>
<use xlink:href="#stroke0_48_7" transform="translate(47.5107 66.4977) scale(0.0172414) rotate(-44.4828)"/>
<use xlink:href="#stroke0_48_7" transform="translate(47.6289 66.4972) scale(0.0172414) rotate(-65.3683)"/>
<use xlink:href="#stroke0_48_7" transform="translate(47.2687 64.3442) scale(0.0172414) rotate(-56.7418)"/>
<use xlink:href="#stroke0_48_7" transform="translate(50.9502 57.5852) scale(0.0172414) rotate(41.1838)"/>
<use xlink:href="#stroke0_48_7" transform="translate(47.7702 57.6455) scale(0.0172414) rotate(-5.39992)"/>
<use xlink:href="#stroke0_48_7" transform="translate(46.8632 57.4664) scale(0.0172414) rotate(-26.0215)"/>
<use xlink:href="#stroke0_48_7" transform="translate(46.5445 57.7041) scale(0.0172414) rotate(-49.9644)"/>
<use xlink:href="#stroke0_48_7" transform="translate(46.5887 56.2255) scale(0.0172414) rotate(-50.8117)"/>
<use xlink:href="#stroke0_48_7" transform="translate(48.6211 57.7567) scale(0.0172414) rotate(-100.007)"/>
<use xlink:href="#stroke0_48_7" transform="translate(47.2392 51.4411) scale(0.0172414) rotate(-27.3568)"/>
<use xlink:href="#stroke0_48_7" transform="translate(49.2883 47.7683) scale(0.0172414) rotate(9.26126)"/>
<use xlink:href="#stroke0_48_7" transform="translate(48.5148 48.2305) scale(0.0172414) rotate(-22.3541)"/>
<use xlink:href="#stroke0_48_7" transform="translate(51.7588 44.5133) scale(0.0172414) rotate(24.4684)"/>
<use xlink:href="#stroke0_48_7" transform="translate(50.4492 49.2661) scale(0.0172414) rotate(-71.1372)"/>
<use xlink:href="#stroke0_48_7" transform="translate(52.0138 48.9109) scale(0.0172414) rotate(-82.7638)"/>
<use xlink:href="#stroke0_48_7" transform="translate(59.7724 42.3745) scale(0.0172414) rotate(93.5178)"/>
<use xlink:href="#stroke0_48_7" transform="translate(60.5063 41.0337) scale(0.0172414) rotate(83.0827)"/>
<use xlink:href="#stroke0_48_7" transform="translate(55.2745 45.3376) scale(0.0172414) rotate(-65.107)"/>
<use xlink:href="#stroke0_48_7" transform="translate(64.3037 40.8694) scale(0.0172414) rotate(101.34)"/>
<use xlink:href="#stroke0_48_7" transform="translate(58.3466 41.1925) scale(0.0172414) rotate(-19.673)"/>
<use xlink:href="#stroke0_48_7" transform="translate(61.3486 39.284) scale(0.0172414) rotate(11.138)"/>
<use xlink:href="#stroke0_48_7" transform="translate(63.677 38.8731) scale(0.0172414) rotate(23.0911)"/>
<use xlink:href="#stroke0_48_7" transform="translate(62.6182 42.3651) scale(0.0172414) rotate(-35.2121)"/>
<use xlink:href="#stroke0_48_7" transform="translate(64.3235 41.9297) scale(0.0172414) rotate(-24.1881)"/>
<use xlink:href="#stroke0_48_7" transform="translate(73.9953 44.9607) scale(0.0172414) rotate(149.61)"/>
<use xlink:href="#stroke0_48_7" transform="translate(70.9314 40.3312) scale(0.0172414) rotate(42.3239)"/>
<use xlink:href="#stroke0_48_7" transform="translate(69.5246 42.3466) scale(0.0172414) rotate(2.3863)"/>
<use xlink:href="#stroke0_48_7" transform="translate(77.6318 44.7812) scale(0.0172414) rotate(112.861)"/>
<use xlink:href="#stroke0_48_7" transform="translate(78.9839 48.2492) scale(0.0172414) rotate(144.815)"/>
<use xlink:href="#stroke0_48_7" transform="translate(79.7263 50.2229) scale(0.0172414) rotate(155.024)"/>
<use xlink:href="#stroke0_48_7" transform="translate(80.1897 48.0179) scale(0.0172414) rotate(106.326)"/>
<use xlink:href="#stroke0_48_7" transform="translate(78.1461 47.3814) scale(0.0172414) rotate(60.3549)"/>
<use xlink:href="#stroke0_48_7" transform="translate(79.8298 56.6529) scale(0.0172414) rotate(-166.648)"/>
<use xlink:href="#stroke0_48_7" transform="translate(77.5952 50.2387) scale(0.0172414) rotate(43.082)"/>
<use xlink:href="#stroke0_48_7" transform="translate(79.0396 51.9093) scale(0.0172414) rotate(60.4652)"/>
<use xlink:href="#stroke0_48_7" transform="translate(77.6966 61.9123) scale(0.0172414) rotate(-130.81)"/>
<use xlink:href="#stroke0_48_7" transform="translate(81.6548 57.2351) scale(0.0172414) rotate(109.375)"/>
<use xlink:href="#stroke0_48_7" transform="translate(79.0418 64.7501) scale(0.0172414) rotate(-153.359)"/>
<use xlink:href="#stroke0_48_7" transform="translate(78.9585 66.2515) scale(0.0172414) rotate(-154.618)"/>
<use xlink:href="#stroke0_48_7" transform="translate(81.0014 61.5827) scale(0.0172414) rotate(105.55)"/>
<use xlink:href="#stroke0_48_7" transform="translate(78.4295 69.3824) scale(0.0172414) rotate(-152.02)"/>
<use xlink:href="#stroke0_48_7" transform="translate(73.7401 64.1135) scale(0.0172414) rotate(-10.4347)"/>
<use xlink:href="#stroke0_48_7" transform="translate(82.279 64.0142) scale(0.0172414) rotate(98.4733)"/>
<use xlink:href="#stroke0_48_7" transform="translate(77.1006 64.1009) scale(0.0172414) rotate(-3.67323)"/>
<use xlink:href="#stroke0_48_7" transform="translate(79.5768 63.8094) scale(0.0172414) rotate(14.882)"/>
<use xlink:href="#stroke0_48_7" transform="translate(87.2516 67.5561) scale(0.0172414) rotate(124.384)"/>
<use xlink:href="#stroke0_48_7" transform="translate(82.1117 65.7261) scale(0.0172414) rotate(19.2088)"/>
<use xlink:href="#stroke0_48_7" transform="translate(88.6805 72.6992) scale(0.0172414) rotate(159.957)"/>
<use xlink:href="#stroke0_48_7" transform="translate(87.9041 69.1323) scale(0.0172414) rotate(85.8056)"/>
<use xlink:href="#stroke0_48_7" transform="translate(89.2545 72.1137) scale(0.0172414) rotate(110.468)"/>
<use xlink:href="#stroke0_48_7" transform="translate(87.9054 71.8845) scale(0.0172414) rotate(78.9677)"/>
<use xlink:href="#stroke0_48_7" transform="translate(88.352 73.6354) scale(0.0172414) rotate(83.881)"/>
<use xlink:href="#stroke0_48_7" transform="translate(90.0503 77.859) scale(0.0172414) rotate(126.394)"/>
<use xlink:href="#stroke0_48_7" transform="translate(89.0028 77.1533) scale(0.0172414) rotate(92.5164)"/>
<use xlink:href="#stroke0_48_7" transform="translate(89.8748 80.0072) scale(0.0172414) rotate(113.407)"/>
<use xlink:href="#stroke0_48_7" transform="translate(86.2353 78.9013) scale(0.0172414) rotate(50.5379)"/>
<use xlink:href="#stroke0_48_7" transform="translate(87.7207 80.8686) scale(0.0172414) rotate(71.9404)"/>
<use xlink:href="#stroke0_48_7" transform="translate(90.0325 86.3665) scale(0.0172414) rotate(137.058)"/>
<use xlink:href="#stroke0_48_7" transform="translate(89.7834 88.7939) scale(0.0172414) rotate(149.028)"/>
<use xlink:href="#stroke0_48_7" transform="translate(87.4847 93.1177) scale(0.0172414) rotate(-162.901)"/>
<use xlink:href="#stroke0_48_7" transform="translate(88.1345 94.0197) scale(0.0172414) rotate(-177.164)"/>
<use xlink:href="#stroke0_48_7" transform="translate(87.7382 95.602) scale(0.0172414) rotate(-175.706)"/>
<use xlink:href="#stroke0_48_7" transform="translate(83.2506 97.9692) scale(0.0172414) rotate(-120.704)"/>
<use xlink:href="#stroke0_48_7" transform="translate(87.3739 96.4508) scale(0.0172414) rotate(155.41)"/>
<use xlink:href="#stroke0_48_7" transform="translate(86.3558 96.8091) scale(0.0172414) rotate(146.829)"/>
<use xlink:href="#stroke0_48_7" transform="translate(76.7391 98.2272) scale(0.0172414) rotate(-65.3565)"/>
<use xlink:href="#stroke0_48_7" transform="translate(75.279 98.6798) scale(0.0172414) rotate(-66.6854)"/>
<use xlink:href="#stroke0_48_7" transform="translate(78.2216 101.436) scale(0.0172414) rotate(-140.91)"/>
<use xlink:href="#stroke0_48_7" transform="translate(78.8881 100.629) scale(0.0172414) rotate(-173.186)"/>
<use xlink:href="#stroke0_48_7" transform="translate(70.4014 98.1461) scale(0.0172414) rotate(-54.0897)"/>
<use xlink:href="#stroke0_48_7" transform="translate(77.4058 97.5911) scale(0.0172414) rotate(136.777)"/>
<use xlink:href="#stroke0_48_7" transform="translate(75.8619 97.8031) scale(0.0172414) rotate(138.346)"/>
<use xlink:href="#stroke0_48_7" transform="translate(74.1921 98.7498) scale(0.0172414) rotate(150.084)"/>
<use xlink:href="#stroke0_48_7" transform="translate(72.6732 98.7119) scale(0.0172414) rotate(148.775)"/>
<use xlink:href="#stroke0_48_7" transform="translate(62.6364 97.5967) scale(0.0172414) rotate(-41.6711)"/>
<use xlink:href="#stroke0_48_7" transform="translate(61.1489 98.5205) scale(0.0172414) rotate(-53.7339)"/>
<use xlink:href="#stroke0_48_7" transform="translate(59.5504 97.9988) scale(0.0172414) rotate(-46.7102)"/>
<use xlink:href="#stroke0_48_7" transform="translate(58.5601 99.9112) scale(0.0172414) rotate(-73.6591)"/>
<use xlink:href="#stroke0_48_7" transform="translate(58.7569 101.567) scale(0.0172414) rotate(-106.385)"/>
<use xlink:href="#stroke0_48_7" transform="translate(56.057 100.624) scale(0.0172414) rotate(-86.8455)"/>
<use xlink:href="#stroke0_48_7" transform="translate(60.2156 101.115) scale(0.0172414) rotate(-170.269)"/>
<use xlink:href="#stroke0_48_7" transform="translate(60.4183 98.0209) scale(0.0172414) rotate(142.119)"/>
<use xlink:href="#stroke0_48_7" transform="translate(51.2826 100.182) scale(0.0172414) rotate(-83.7473)"/>
<use xlink:href="#stroke0_48_7" transform="translate(57.3503 97.6936) scale(0.0172414) rotate(140.797)"/>
<use xlink:href="#stroke0_48_7" transform="translate(47.2203 97.1813) scale(0.0172414) rotate(-43.9742)"/>
<use xlink:href="#stroke0_48_7" transform="translate(46.8538 100.027) scale(0.0172414) rotate(-87.4904)"/>
<use xlink:href="#stroke0_48_7" transform="translate(52.2847 98.8036) scale(0.0172414) rotate(163.356)"/>
<use xlink:href="#stroke0_48_7" transform="translate(42.8414 95.3076) scale(0.0172414) rotate(-31.9558)"/>
<use xlink:href="#stroke0_48_7" transform="translate(45.1319 99.5738) scale(0.0172414) rotate(-125.299)"/>
<use xlink:href="#stroke0_48_7" transform="translate(43.2967 98.2032) scale(0.0172414) rotate(-114.001)"/>
<use xlink:href="#stroke0_48_7" transform="translate(44.0068 97.1087) scale(0.0172414) rotate(-133.513)"/>
<use xlink:href="#stroke0_48_7" transform="translate(40.9697 94.6744) scale(0.0172414) rotate(-95.4609)"/>
<use xlink:href="#stroke0_48_7" transform="translate(42.1609 93.9019) scale(0.0172414) rotate(-116.981)"/>
<use xlink:href="#stroke0_48_7" transform="translate(39.1261 89.5042) scale(0.0172414) rotate(-61.0049)"/>
<use xlink:href="#stroke0_48_7" transform="translate(38.8081 86.3768) scale(0.0172414) rotate(-39.574)"/>
<use xlink:href="#stroke0_48_7" transform="translate(39.1792 83.1842) scale(0.0172414) rotate(-16.506)"/>
<use xlink:href="#stroke0_48_7" transform="translate(41.4019 87.6683) scale(0.0172414) rotate(-113.488)"/>
<use xlink:href="#stroke0_48_7" transform="translate(38.6103 82.4904) scale(0.0172414) rotate(-49.4014)"/>
<use xlink:href="#stroke0_48_7" transform="translate(41.0752 76.663) scale(0.0172414) rotate(20.5765)"/>
<use xlink:href="#stroke0_48_7" transform="translate(39.0043 77.328) scale(0.0172414) rotate(-21.1235)"/>
<use xlink:href="#stroke0_48_7" transform="translate(38.7961 78.07) scale(0.0172414) rotate(-52.1473)"/>
<use xlink:href="#stroke0_48_7" transform="translate(41.6361 79.9493) scale(0.0172414) rotate(-112.976)"/>
<use xlink:href="#stroke0_48_7" transform="translate(40.602 71.1066) scale(0.0172414) rotate(5.81243)"/>
<use xlink:href="#stroke0_48_7" transform="translate(39.6317 71.1706) scale(0.0172414) rotate(-20.8498)"/>
<use xlink:href="#stroke0_48_7" transform="translate(42.1824 67.4151) scale(0.0172414) rotate(22.4172)"/>
<use xlink:href="#stroke0_48_7" transform="translate(40.2515 70.5693) scale(0.0172414) rotate(-52.3792)"/>
<use xlink:href="#stroke0_48_7" transform="translate(41.2556 67.707) scale(0.0172414) rotate(-30.4969)"/>
<use xlink:href="#stroke0_48_7" transform="translate(42.4433 68.7843) scale(0.0172414) rotate(-58.2682)"/>
<use xlink:href="#stroke0_48_7" transform="translate(51.2054 64.1781) scale(0.0172414) rotate(94.1257)"/>
<use xlink:href="#stroke0_48_7" transform="translate(53.4456 64.9832) scale(0.0172414) rotate(112.748)"/>
<use xlink:href="#stroke0_48_7" transform="translate(48.1904 63.2978) scale(0.0172414) rotate(4.65432)"/>
<use xlink:href="#stroke0_48_7" transform="translate(47.5502 67.0582) scale(0.0172414) rotate(-51.9686)"/>
<use xlink:href="#stroke0_48_7" transform="translate(59.0263 46.8568) scale(0.0172414) rotate(-40.4541)"/>
<use xlink:href="#stroke0_48_7" transform="translate(63.1899 43.1206) scale(0.0172414) rotate(22.9542)"/>
<use xlink:href="#stroke0_48_7" transform="translate(68.3896 43.4807) scale(0.0172414) rotate(73.5047)"/>
<use xlink:href="#stroke0_48_7" transform="translate(71.8086 49.4639) scale(0.0172414) rotate(159.324)"/>
<use xlink:href="#stroke0_48_7" transform="translate(72.0766 45.2046) scale(0.0172414) rotate(87.0673)"/>
<use xlink:href="#stroke0_48_7" transform="translate(71.5576 45.1865) scale(0.0172414) rotate(60.3088)"/>
<use xlink:href="#stroke0_48_7" transform="translate(71.4484 46.159) scale(0.0172414) rotate(44.4432)"/>
<use xlink:href="#stroke0_48_7" transform="translate(70.5323 47.8668) scale(0.0172414) rotate(19.7923)"/>
<use xlink:href="#stroke0_48_7" transform="translate(75.3317 49.4792) scale(0.0172414) rotate(77.6407)"/>
<use xlink:href="#stroke0_48_7" transform="translate(77.7063 55.3031) scale(0.0172414) rotate(144.862)"/>
<use xlink:href="#stroke0_48_7" transform="translate(76.348 59.5009) scale(0.0172414) rotate(-173.23)"/>
<use xlink:href="#stroke0_48_7" transform="translate(74.59 53.5053) scale(0.0172414) rotate(58.7865)"/>
<use xlink:href="#stroke0_48_7" transform="translate(75.7758 62.8577) scale(0.0172414) rotate(-166.824)"/>
<use xlink:href="#stroke0_48_7" transform="translate(73.8764 65.0296) scale(0.0172414) rotate(-142.118)"/>
<use xlink:href="#stroke0_48_7" transform="translate(74.3889 58.1904) scale(0.0172414) rotate(63.0894)"/>
<use xlink:href="#stroke0_48_7" transform="translate(77.2139 64.3292) scale(0.0172414) rotate(142.422)"/>
<use xlink:href="#stroke0_48_7" transform="translate(74.9383 61.6513) scale(0.0172414) rotate(76.1168)"/>
<use xlink:href="#stroke0_48_7" transform="translate(67.813 67.3693) scale(0.0172414) rotate(-61.2204)"/>
<use xlink:href="#stroke0_48_7" transform="translate(66.8215 68.4391) scale(0.0172414) rotate(-78.2458)"/>
<use xlink:href="#stroke0_48_7" transform="translate(71.0346 69.6727) scale(0.0172414) rotate(-164.763)"/>
<use xlink:href="#stroke0_48_7" transform="translate(71.3391 67.418) scale(0.0172414) rotate(156.129)"/>
<use xlink:href="#stroke0_48_7" transform="translate(69.5495 67.939) scale(0.0172414) rotate(164.115)"/>
<use xlink:href="#stroke0_48_7" transform="translate(68.5209 65.8755) scale(0.0172414) rotate(135.601)"/>
<use xlink:href="#stroke0_48_7" transform="translate(58.7579 67.6886) scale(0.0172414) rotate(-68.7053)"/>
<use xlink:href="#stroke0_48_7" transform="translate(59.7523 70.0093) scale(0.0172414) rotate(-115.505)"/>
<use xlink:href="#stroke0_48_7" transform="translate(58.1335 70.0303) scale(0.0172414) rotate(-114.427)"/>
<use xlink:href="#stroke0_48_7" transform="translate(58.7603 70.2901) scale(0.0172414) rotate(-143.727)"/>
<use xlink:href="#stroke0_48_7" transform="translate(52.4133 67.4611) scale(0.0172414) rotate(-62.2072)"/>
<use xlink:href="#stroke0_48_7" transform="translate(51.9777 66.5793) scale(0.0172414) rotate(-65.5536)"/>
<use xlink:href="#stroke0_48_7" transform="translate(52.2113 61.1236) scale(0.0172414) rotate(-11.0297)"/>
<use xlink:href="#stroke0_48_7" transform="translate(53.6224 58.1439) scale(0.0172414) rotate(17.8123)"/>
<use xlink:href="#stroke0_48_7" transform="translate(52.0326 57.8224) scale(0.0172414) rotate(-7.22193)"/>
<use xlink:href="#stroke0_48_7" transform="translate(51.0889 57.9871) scale(0.0172414) rotate(-32.2548)"/>
<use xlink:href="#stroke0_48_7" transform="translate(51.7421 59.975) scale(0.0172414) rotate(-81.9071)"/>
<use xlink:href="#stroke0_48_7" transform="translate(50.9787 56.6919) scale(0.0172414) rotate(-56.1357)"/>
<use xlink:href="#stroke0_48_7" transform="translate(54.7539 58.5284) scale(0.0172414) rotate(-125.489)"/>
<use xlink:href="#stroke0_48_7" transform="translate(53.3063 49.3345) scale(0.0172414) rotate(9.45364)"/>
<use xlink:href="#stroke0_48_7" transform="translate(52.9198 49.1199) scale(0.0172414) rotate(-11.7953)"/>
<use xlink:href="#stroke0_48_7" transform="translate(56.9443 45.9166) scale(0.0172414) rotate(38.7585)"/>
<use xlink:href="#stroke0_48_7" transform="translate(61.0386 45.5853) scale(0.0172414) rotate(80.5425)"/>
<use xlink:href="#stroke0_48_7" transform="translate(56.2286 45.9524) scale(0.0172414) rotate(-11.7917)"/>
<use xlink:href="#stroke0_48_7" transform="translate(56.9611 47.6209) scale(0.0172414) rotate(-44.2148)"/>
<use xlink:href="#stroke0_48_7" transform="translate(64.1381 43.1456) scale(0.0172414) rotate(64.5666)"/>
<use xlink:href="#stroke0_48_7" transform="translate(77.6459 73.27) scale(0.0172414) rotate(175.01)"/>
<use xlink:href="#stroke0_48_7" transform="translate(72.9586 74.7377) scale(0.0172414) rotate(-136.68)"/>
<use xlink:href="#stroke0_48_7" transform="translate(67.3003 72.0977) scale(0.0172414) rotate(-68.224)"/>
<use xlink:href="#stroke0_48_7" transform="translate(73.2269 72.7228) scale(0.0172414) rotate(170.548)"/>
<use xlink:href="#stroke0_48_7" transform="translate(68.4404 74.509) scale(0.0172414) rotate(-138.087)"/>
<use xlink:href="#stroke0_48_7" transform="translate(69.6324 73.2379) scale(0.0172414) rotate(-178.886)"/>
<use xlink:href="#stroke0_48_7" transform="translate(63.1634 74.0234) scale(0.0172414) rotate(-108.011)"/>
<use xlink:href="#stroke0_48_7" transform="translate(65.417 74.025) scale(0.0172414) rotate(-160.355)"/>
<use xlink:href="#stroke0_48_7" transform="translate(64.5281 73.6481) scale(0.0172414) rotate(-170.555)"/>
<use xlink:href="#stroke0_48_7" transform="translate(64.6891 70.8652) scale(0.0172414) rotate(144.415)"/>
<use xlink:href="#stroke0_48_7" transform="translate(58.1528 74.5195) scale(0.0172414) rotate(-124.306)"/>
<use xlink:href="#stroke0_48_7" transform="translate(61.3521 71.9406) scale(0.0172414) rotate(157.41)"/>
<use xlink:href="#stroke0_48_7" transform="translate(51.5405 70.9947) scale(0.0172414) rotate(-51.4328)"/>
<use xlink:href="#stroke0_48_7" transform="translate(55.3581 74.7311) scale(0.0172414) rotate(-148.814)"/>
<use xlink:href="#stroke0_48_7" transform="translate(56.2319 73.1953) scale(0.0172414) rotate(171.43)"/>
<use xlink:href="#stroke0_48_7" transform="translate(52.0675 75.0256) scale(0.0172414) rotate(-145.888)"/>
<use xlink:href="#stroke0_48_7" transform="translate(53.9623 71.2229) scale(0.0172414) rotate(138.944)"/>
<use xlink:href="#stroke0_48_7" transform="translate(52.5874 72.8928) scale(0.0172414) rotate(149.886)"/>
<use xlink:href="#stroke0_48_7" transform="translate(49.0653 69.1354) scale(0.0172414) rotate(61.751)"/>
<use xlink:href="#stroke0_48_7" transform="translate(51.9388 75.2903) scale(0.0172414) rotate(142.337)"/>
<use xlink:href="#stroke0_48_7" transform="translate(51.7854 76.1506) scale(0.0172414) rotate(133.37)"/>
<use xlink:href="#stroke0_48_7" transform="translate(47.943 73.608) scale(0.0172414) rotate(53.7148)"/>
<use xlink:href="#stroke0_48_7" transform="translate(48.5814 83.5079) scale(0.0172414) rotate(-152.061)"/>
<use xlink:href="#stroke0_48_7" transform="translate(50.4138 78.076) scale(0.0172414) rotate(93.848)"/>
<use xlink:href="#stroke0_48_7" transform="translate(47.1427 78.1935) scale(0.0172414) rotate(44.9163)"/>
<use xlink:href="#stroke0_48_7" transform="translate(50.1978 87.1756) scale(0.0172414) rotate(-177.416)"/>
<use xlink:href="#stroke0_48_7" transform="translate(50.1912 88.7987) scale(0.0172414) rotate(-175.791)"/>
<use xlink:href="#stroke0_48_7" transform="translate(51.5616 85.8119) scale(0.0172414) rotate(118.145)"/>
<use xlink:href="#stroke0_48_7" transform="translate(51.6243 87.0461) scale(0.0172414) rotate(113.908)"/>
<use xlink:href="#stroke0_48_7" transform="translate(52.0861 89.4495) scale(0.0172414) rotate(126.04)"/>
<use xlink:href="#stroke0_48_7" transform="translate(51.5639 94.4188) scale(0.0172414) rotate(175.854)"/>
<use xlink:href="#stroke0_48_7" transform="translate(45.7099 90.4612) scale(0.0172414) rotate(-13.8992)"/>
<use xlink:href="#stroke0_48_7" transform="translate(49.5742 88.7925) scale(0.0172414) rotate(27.2739)"/>
<use xlink:href="#stroke0_48_7" transform="translate(52.5156 88.6915) scale(0.0172414) rotate(46.2738)"/>
<use xlink:href="#stroke0_48_7" transform="translate(55.5217 89.0843) scale(0.0172414) rotate(66.2444)"/>
<use xlink:href="#stroke0_48_7" transform="translate(56.9293 89.1549) scale(0.0172414) rotate(64.3936)"/>
<use xlink:href="#stroke0_48_7" transform="translate(61.4016 93.363) scale(0.0172414) rotate(136.206)"/>
<use xlink:href="#stroke0_48_7" transform="translate(54.4343 92.4927) scale(0.0172414) rotate(-31.8376)"/>
<use xlink:href="#stroke0_48_7" transform="translate(63.1561 90.3646) scale(0.0172414) rotate(89.548)"/>
<use xlink:href="#stroke0_48_7" transform="translate(63.5219 89.6065) scale(0.0172414) rotate(70.516)"/>
<use xlink:href="#stroke0_48_7" transform="translate(64.6896 89.4781) scale(0.0172414) rotate(65.1259)"/>
<use xlink:href="#stroke0_48_7" transform="translate(66.8748 89.7684) scale(0.0172414) rotate(74.4936)"/>
<use xlink:href="#stroke0_48_7" transform="translate(69.8074 90.9635) scale(0.0172414) rotate(99.2088)"/>
<use xlink:href="#stroke0_48_7" transform="translate(63.5926 93.6194) scale(0.0172414) rotate(-45.8266)"/>
<use xlink:href="#stroke0_48_7" transform="translate(65.9423 90.9319) scale(0.0172414) rotate(-8.47861)"/>
<use xlink:href="#stroke0_48_7" transform="translate(69.275 89.4204) scale(0.0172414) rotate(22.496)"/>
<use xlink:href="#stroke0_48_7" transform="translate(68.2153 93.2302) scale(0.0172414) rotate(-43.4863)"/>
<use xlink:href="#stroke0_48_7" transform="translate(69.8031 93.8211) scale(0.0172414) rotate(-52.8334)"/>
<use xlink:href="#stroke0_48_7" transform="translate(75.2412 88.763) scale(0.0172414) rotate(41.0762)"/>
<use xlink:href="#stroke0_48_7" transform="translate(77.3375 88.6309) scale(0.0172414) rotate(48.5102)"/>
<use xlink:href="#stroke0_48_7" transform="translate(76.1392 89.3281) scale(0.0172414) rotate(9.74617)"/>
<use xlink:href="#stroke0_48_7" transform="translate(76.8016 95.0049) scale(0.0172414) rotate(-84.9191)"/>
<use xlink:href="#stroke0_48_7" transform="translate(78.3023 87.4043) scale(0.0172414) rotate(9.83536)"/>
<use xlink:href="#stroke0_48_7" transform="translate(80.8284 93.66) scale(0.0172414) rotate(-131.008)"/>
<use xlink:href="#stroke0_48_7" transform="translate(78.4025 84.6106) scale(0.0172414) rotate(4.25488)"/>
<use xlink:href="#stroke0_48_7" transform="translate(77.8826 83.8218) scale(0.0172414) rotate(-9.10929)"/>
<use xlink:href="#stroke0_48_7" transform="translate(79.6465 80.8754) scale(0.0172414) rotate(20.1763)"/>
<use xlink:href="#stroke0_48_7" transform="translate(77.2648 83.2119) scale(0.0172414) rotate(-44.1614)"/>
<use xlink:href="#stroke0_48_7" transform="translate(78.0431 79.2265) scale(0.0172414) rotate(-9.58142)"/>
<use xlink:href="#stroke0_48_7" transform="translate(77.9653 82.4971) scale(0.0172414) rotate(-77.5846)"/>
<use xlink:href="#stroke0_48_7" transform="translate(78.7542 75.2626) scale(0.0172414) rotate(6.37297)"/>
<use xlink:href="#stroke0_48_7" transform="translate(80.4864 81.2592) scale(0.0172414) rotate(-122.282)"/>
<use xlink:href="#stroke0_48_7" transform="translate(77.477 73.383) scale(0.0172414) rotate(-14.5293)"/>
<use xlink:href="#stroke0_48_7" transform="translate(76.759 74.6135) scale(0.0172414) rotate(-52.614)"/>
<use xlink:href="#stroke0_48_7" transform="translate(79.1145 68.4798) scale(0.0172414) rotate(23.7819)"/>
<use xlink:href="#stroke0_48_7" transform="translate(76.2336 68.8447) scale(0.0172414) rotate(-9.62031)"/>
<use xlink:href="#stroke0_48_7" transform="translate(76.6728 74.8438) scale(0.0172414) rotate(-111.765)"/>
<use xlink:href="#stroke0_48_7" transform="translate(74.083 74.1012) scale(0.0172414) rotate(-95.451)"/>
<use xlink:href="#stroke0_48_7" transform="translate(77.5438 74.2571) scale(0.0172414) rotate(-166.584)"/>
<use xlink:href="#stroke0_48_7" transform="translate(70.0359 71.0521) scale(0.0172414) rotate(-50.8899)"/>
</g>
<g filter="url(#filter1_d_48_7)">
<path d="M105.258 183.061C105.258 178.995 106.905 175.095 109.838 172.219C112.771 169.344 116.749 167.729 120.896 167.729C125.044 167.729 129.022 169.344 131.954 172.219C134.887 175.095 136.535 178.995 136.535 183.061C136.535 187.128 134.887 191.028 131.954 193.903C129.022 196.779 125.044 198.394 120.896 198.394C116.749 198.394 112.771 196.779 109.838 193.903C106.905 191.028 105.258 187.128 105.258 183.061Z" fill="#F5E7A0"/>
<path fill-rule="evenodd" clip-rule="evenodd" d="M75.2521 127.833L71.9575 98.8129C71.5396 95.0932 71.5396 91.3397 71.9575 87.62L72.1973 85.5245C73.5344 73.7784 79.2408 62.9277 88.2251 55.0475C97.2095 47.1672 108.841 42.8105 120.896 42.8105C132.951 42.8105 144.583 47.1672 153.567 55.0475C162.552 62.9277 168.258 73.7784 169.595 85.5245L169.835 87.62C170.252 91.3476 170.252 95.0785 169.835 98.8129L166.54 127.843L173.703 128.395C179.188 128.823 184.369 131.041 188.417 134.695C192.465 138.349 195.148 143.228 196.035 148.552C199.85 171.406 199.85 194.716 196.035 217.57C195.148 222.895 192.465 227.774 188.417 231.428C184.369 235.082 179.188 237.3 173.703 237.728L158.106 238.954C133.334 240.897 108.458 240.897 83.6866 238.954L68.0896 237.728C62.6043 237.3 57.4235 235.082 53.3753 231.428C49.327 227.774 46.6449 222.895 45.7575 217.57C41.9422 194.716 41.9422 171.406 45.7575 148.552C46.6449 143.228 49.327 138.349 53.3753 134.695C57.4235 131.041 62.6043 128.823 68.0896 128.395L75.2521 127.833ZM116.997 58.3549C121.366 57.8514 125.794 58.2001 130.025 59.3809C134.256 60.5617 138.207 62.5513 141.651 65.2352C145.095 67.919 147.963 71.2442 150.091 75.0193C152.219 78.7943 153.565 82.9447 154.05 87.2316L154.29 89.3271C154.582 91.9234 154.582 94.5266 154.29 97.1365L150.943 126.678C130.932 125.419 110.86 125.419 90.8491 126.678L87.5128 97.1365C87.2222 94.5412 87.2222 91.9224 87.5128 89.3271L87.7422 87.2316C88.5738 79.8858 91.9183 73.0326 97.2308 67.7888C102.543 62.545 109.51 59.2198 116.997 58.3549ZM156.865 142.47C132.924 140.599 108.869 140.599 84.9272 142.47L69.3407 143.697C67.3385 143.85 65.4467 144.657 63.9684 145.99C62.4901 147.323 61.5109 149.103 61.1877 151.047C57.6477 172.256 57.6477 193.888 61.1877 215.097C61.5088 217.042 62.4871 218.825 63.9656 220.159C65.4441 221.494 67.337 222.303 69.3407 222.456L84.9376 223.683C108.875 225.554 132.917 225.554 156.865 223.683L172.462 222.456C174.464 222.301 176.354 221.491 177.831 220.156C179.307 218.822 180.284 217.04 180.605 215.097C184.145 193.888 184.145 172.256 180.605 151.047C180.284 149.103 179.307 147.321 177.831 145.987C176.354 144.652 174.464 143.842 172.462 143.687L156.865 142.47Z" fill="#F5E7A0"/>
<use xlink:href="#stroke1_48_7" transform="translate(56.0187 80.4383) scale(0.0172414) rotate(-25.0714)"/>
<use xlink:href="#stroke1_48_7" transform="translate(59.0429 84.435) scale(0.0172414) rotate(-116.315)"/>
<use xlink:href="#stroke1_48_7" transform="translate(58.9212 75.352) scale(0.0172414) rotate(14.453)"/>
<use xlink:href="#stroke1_48_7" transform="translate(60.6283 74.145) scale(0.0172414) rotate(21.9484)"/>
<use xlink:href="#stroke1_48_7" transform="translate(59.5806 76.9495) scale(0.0172414) rotate(-35.27)"/>
<use xlink:href="#stroke1_48_7" transform="translate(69.5333 76.6135) scale(0.0172414) rotate(121.332)"/>
<use xlink:href="#stroke1_48_7" transform="translate(67.0771 73.9974) scale(0.0172414) rotate(49.7925)"/>
<use xlink:href="#stroke1_48_7" transform="translate(68.8581 75.1551) scale(0.0172414) rotate(58.8048)"/>
<use xlink:href="#stroke1_48_7" transform="translate(69.0518 76.456) scale(0.0172414) rotate(52.4187)"/>
<use xlink:href="#stroke1_48_7" transform="translate(68.5813 86.5633) scale(0.0172414) rotate(-132.789)"/>
<use xlink:href="#stroke1_48_7" transform="translate(67.3672 87.9452) scale(0.0172414) rotate(-122.186)"/>
<use xlink:href="#stroke1_48_7" transform="translate(64.881 88.4946) scale(0.0172414) rotate(-99.3154)"/>
<use xlink:href="#stroke1_48_7" transform="translate(64.9357 89.9474) scale(0.0172414) rotate(-119.208)"/>
<use xlink:href="#stroke1_48_7" transform="translate(60.8129 88.2523) scale(0.0172414) rotate(-73.9937)"/>
<use xlink:href="#stroke1_48_7" transform="translate(64.1503 90.0501) scale(0.0172414) rotate(-149.302)"/>
<use xlink:href="#stroke1_48_7" transform="translate(57.7301 83.4511) scale(0.0172414) rotate(-20.7716)"/>
<use xlink:href="#stroke1_48_7" transform="translate(61.4556 88.2343) scale(0.0172414) rotate(-144.643)"/>
<use xlink:href="#stroke1_48_7" transform="translate(57.1277 79.4926) scale(0.0172414) rotate(1.28385)"/>
<use xlink:href="#stroke1_48_7" transform="translate(47.5107 66.4977) scale(0.0172414) rotate(-44.4828)"/>
<use xlink:href="#stroke1_48_7" transform="translate(47.6289 66.4972) scale(0.0172414) rotate(-65.3683)"/>
<use xlink:href="#stroke1_48_7" transform="translate(47.2687 64.3442) scale(0.0172414) rotate(-56.7418)"/>
<use xlink:href="#stroke1_48_7" transform="translate(50.9502 57.5852) scale(0.0172414) rotate(41.1838)"/>
<use xlink:href="#stroke1_48_7" transform="translate(47.7702 57.6455) scale(0.0172414) rotate(-5.39992)"/>
<use xlink:href="#stroke1_48_7" transform="translate(46.8632 57.4664) scale(0.0172414) rotate(-26.0215)"/>
<use xlink:href="#stroke1_48_7" transform="translate(46.5445 57.7041) scale(0.0172414) rotate(-49.9644)"/>
<use xlink:href="#stroke1_48_7" transform="translate(46.5887 56.2255) scale(0.0172414) rotate(-50.8117)"/>
<use xlink:href="#stroke1_48_7" transform="translate(48.6211 57.7567) scale(0.0172414) rotate(-100.007)"/>
<use xlink:href="#stroke1_48_7" transform="translate(47.2392 51.4411) scale(0.0172414) rotate(-27.3568)"/>
<use xlink:href="#stroke1_48_7" transform="translate(49.2883 47.7683) scale(0.0172414) rotate(9.26126)"/>
<use xlink:href="#stroke1_48_7" transform="translate(48.5148 48.2305) scale(0.0172414) rotate(-22.3541)"/>
<use xlink:href="#stroke1_48_7" transform="translate(51.7588 44.5133) scale(0.0172414) rotate(24.4684)"/>
<use xlink:href="#stroke1_48_7" transform="translate(50.4492 49.2661) scale(0.0172414) rotate(-71.1372)"/>
<use xlink:href="#stroke1_48_7" transform="translate(52.0138 48.9109) scale(0.0172414) rotate(-82.7638)"/>
<use xlink:href="#stroke1_48_7" transform="translate(59.7724 42.3745) scale(0.0172414) rotate(93.5178)"/>
<use xlink:href="#stroke1_48_7" transform="translate(60.5063 41.0337) scale(0.0172414) rotate(83.0827)"/>
<use xlink:href="#stroke1_48_7" transform="translate(55.2745 45.3376) scale(0.0172414) rotate(-65.107)"/>
<use xlink:href="#stroke1_48_7" transform="translate(64.3037 40.8694) scale(0.0172414) rotate(101.34)"/>
<use xlink:href="#stroke1_48_7" transform="translate(58.3466 41.1925) scale(0.0172414) rotate(-19.673)"/>
<use xlink:href="#stroke1_48_7" transform="translate(61.3486 39.284) scale(0.0172414) rotate(11.138)"/>
<use xlink:href="#stroke1_48_7" transform="translate(63.677 38.8731) scale(0.0172414) rotate(23.0911)"/>
<use xlink:href="#stroke1_48_7" transform="translate(62.6182 42.3651) scale(0.0172414) rotate(-35.2121)"/>
<use xlink:href="#stroke1_48_7" transform="translate(64.3235 41.9297) scale(0.0172414) rotate(-24.1881)"/>
<use xlink:href="#stroke1_48_7" transform="translate(73.9953 44.9607) scale(0.0172414) rotate(149.61)"/>
<use xlink:href="#stroke1_48_7" transform="translate(70.9314 40.3312) scale(0.0172414) rotate(42.3239)"/>
<use xlink:href="#stroke1_48_7" transform="translate(69.5246 42.3466) scale(0.0172414) rotate(2.3863)"/>
<use xlink:href="#stroke1_48_7" transform="translate(77.6318 44.7812) scale(0.0172414) rotate(112.861)"/>
<use xlink:href="#stroke1_48_7" transform="translate(78.9839 48.2492) scale(0.0172414) rotate(144.815)"/>
<use xlink:href="#stroke1_48_7" transform="translate(79.7263 50.2229) scale(0.0172414) rotate(155.024)"/>
<use xlink:href="#stroke1_48_7" transform="translate(80.1897 48.0179) scale(0.0172414) rotate(106.326)"/>
<use xlink:href="#stroke1_48_7" transform="translate(78.1461 47.3814) scale(0.0172414) rotate(60.3549)"/>
<use xlink:href="#stroke1_48_7" transform="translate(79.8298 56.6529) scale(0.0172414) rotate(-166.648)"/>
<use xlink:href="#stroke1_48_7" transform="translate(77.5952 50.2387) scale(0.0172414) rotate(43.082)"/>
<use xlink:href="#stroke1_48_7" transform="translate(79.0396 51.9093) scale(0.0172414) rotate(60.4652)"/>
<use xlink:href="#stroke1_48_7" transform="translate(77.6966 61.9123) scale(0.0172414) rotate(-130.81)"/>
<use xlink:href="#stroke1_48_7" transform="translate(81.6548 57.2351) scale(0.0172414) rotate(109.375)"/>
<use xlink:href="#stroke1_48_7" transform="translate(79.0418 64.7501) scale(0.0172414) rotate(-153.359)"/>
<use xlink:href="#stroke1_48_7" transform="translate(78.9585 66.2515) scale(0.0172414) rotate(-154.618)"/>
<use xlink:href="#stroke1_48_7" transform="translate(81.0014 61.5827) scale(0.0172414) rotate(105.55)"/>
<use xlink:href="#stroke1_48_7" transform="translate(78.4295 69.3824) scale(0.0172414) rotate(-152.02)"/>
<use xlink:href="#stroke1_48_7" transform="translate(73.7401 64.1135) scale(0.0172414) rotate(-10.4347)"/>
<use xlink:href="#stroke1_48_7" transform="translate(82.279 64.0142) scale(0.0172414) rotate(98.4733)"/>
<use xlink:href="#stroke1_48_7" transform="translate(77.1006 64.1009) scale(0.0172414) rotate(-3.67323)"/>
<use xlink:href="#stroke1_48_7" transform="translate(79.5768 63.8094) scale(0.0172414) rotate(14.882)"/>
<use xlink:href="#stroke1_48_7" transform="translate(87.2516 67.5561) scale(0.0172414) rotate(124.384)"/>
<use xlink:href="#stroke1_48_7" transform="translate(82.1117 65.7261) scale(0.0172414) rotate(19.2088)"/>
<use xlink:href="#stroke1_48_7" transform="translate(88.6805 72.6992) scale(0.0172414) rotate(159.957)"/>
<use xlink:href="#stroke1_48_7" transform="translate(87.9041 69.1323) scale(0.0172414) rotate(85.8056)"/>
<use xlink:href="#stroke1_48_7" transform="translate(89.2545 72.1137) scale(0.0172414) rotate(110.468)"/>
<use xlink:href="#stroke1_48_7" transform="translate(87.9054 71.8845) scale(0.0172414) rotate(78.9677)"/>
<use xlink:href="#stroke1_48_7" transform="translate(88.352 73.6354) scale(0.0172414) rotate(83.881)"/>
<use xlink:href="#stroke1_48_7" transform="translate(90.0503 77.859) scale(0.0172414) rotate(126.394)"/>
<use xlink:href="#stroke1_48_7" transform="translate(89.0028 77.1533) scale(0.0172414) rotate(92.5164)"/>
<use xlink:href="#stroke1_48_7" transform="translate(89.8748 80.0072) scale(0.0172414) rotate(113.407)"/>
<use xlink:href="#stroke1_48_7" transform="translate(86.2353 78.9013) scale(0.0172414) rotate(50.5379)"/>
<use xlink:href="#stroke1_48_7" transform="translate(87.7207 80.8686) scale(0.0172414) rotate(71.9404)"/>
<use xlink:href="#stroke1_48_7" transform="translate(90.0325 86.3665) scale(0.0172414) rotate(137.058)"/>
<use xlink:href="#stroke1_48_7" transform="translate(89.7834 88.7939) scale(0.0172414) rotate(149.028)"/>
<use xlink:href="#stroke1_48_7" transform="translate(87.4847 93.1177) scale(0.0172414) rotate(-162.901)"/>
<use xlink:href="#stroke1_48_7" transform="translate(88.1345 94.0197) scale(0.0172414) rotate(-177.164)"/>
<use xlink:href="#stroke1_48_7" transform="translate(87.7382 95.602) scale(0.0172414) rotate(-175.706)"/>
<use xlink:href="#stroke1_48_7" transform="translate(83.2506 97.9692) scale(0.0172414) rotate(-120.704)"/>
<use xlink:href="#stroke1_48_7" transform="translate(87.3739 96.4508) scale(0.0172414) rotate(155.41)"/>
<use xlink:href="#stroke1_48_7" transform="translate(86.3558 96.8091) scale(0.0172414) rotate(146.829)"/>
<use xlink:href="#stroke1_48_7" transform="translate(76.7391 98.2272) scale(0.0172414) rotate(-65.3565)"/>
<use xlink:href="#stroke1_48_7" transform="translate(75.279 98.6798) scale(0.0172414) rotate(-66.6854)"/>
<use xlink:href="#stroke1_48_7" transform="translate(78.2216 101.436) scale(0.0172414) rotate(-140.91)"/>
<use xlink:href="#stroke1_48_7" transform="translate(78.8881 100.629) scale(0.0172414) rotate(-173.186)"/>
<use xlink:href="#stroke1_48_7" transform="translate(70.4014 98.1461) scale(0.0172414) rotate(-54.0897)"/>
<use xlink:href="#stroke1_48_7" transform="translate(77.4058 97.5911) scale(0.0172414) rotate(136.777)"/>
<use xlink:href="#stroke1_48_7" transform="translate(75.8619 97.8031) scale(0.0172414) rotate(138.346)"/>
<use xlink:href="#stroke1_48_7" transform="translate(74.1921 98.7498) scale(0.0172414) rotate(150.084)"/>
<use xlink:href="#stroke1_48_7" transform="translate(72.6732 98.7119) scale(0.0172414) rotate(148.775)"/>
<use xlink:href="#stroke1_48_7" transform="translate(62.6364 97.5967) scale(0.0172414) rotate(-41.6711)"/>
<use xlink:href="#stroke1_48_7" transform="translate(61.1489 98.5205) scale(0.0172414) rotate(-53.7339)"/>
<use xlink:href="#stroke1_48_7" transform="translate(59.5504 97.9988) scale(0.0172414) rotate(-46.7102)"/>
<use xlink:href="#stroke1_48_7" transform="translate(58.5601 99.9112) scale(0.0172414) rotate(-73.6591)"/>
<use xlink:href="#stroke1_48_7" transform="translate(58.7569 101.567) scale(0.0172414) rotate(-106.385)"/>
<use xlink:href="#stroke1_48_7" transform="translate(56.057 100.624) scale(0.0172414) rotate(-86.8455)"/>
<use xlink:href="#stroke1_48_7" transform="translate(60.2156 101.115) scale(0.0172414) rotate(-170.269)"/>
<use xlink:href="#stroke1_48_7" transform="translate(60.4183 98.0209) scale(0.0172414) rotate(142.119)"/>
<use xlink:href="#stroke1_48_7" transform="translate(51.2826 100.182) scale(0.0172414) rotate(-83.7473)"/>
<use xlink:href="#stroke1_48_7" transform="translate(57.3503 97.6936) scale(0.0172414) rotate(140.797)"/>
<use xlink:href="#stroke1_48_7" transform="translate(47.2203 97.1813) scale(0.0172414) rotate(-43.9742)"/>
<use xlink:href="#stroke1_48_7" transform="translate(46.8538 100.027) scale(0.0172414) rotate(-87.4904)"/>
<use xlink:href="#stroke1_48_7" transform="translate(52.2847 98.8036) scale(0.0172414) rotate(163.356)"/>
<use xlink:href="#stroke1_48_7" transform="translate(42.8414 95.3076) scale(0.0172414) rotate(-31.9558)"/>
<use xlink:href="#stroke1_48_7" transform="translate(45.1319 99.5738) scale(0.0172414) rotate(-125.299)"/>
<use xlink:href="#stroke1_48_7" transform="translate(43.2967 98.2032) scale(0.0172414) rotate(-114.001)"/>
<use xlink:href="#stroke1_48_7" transform="translate(44.0068 97.1087) scale(0.0172414) rotate(-133.513)"/>
<use xlink:href="#stroke1_48_7" transform="translate(40.9697 94.6744) scale(0.0172414) rotate(-95.4609)"/>
<use xlink:href="#stroke1_48_7" transform="translate(42.1609 93.9019) scale(0.0172414) rotate(-116.981)"/>
<use xlink:href="#stroke1_48_7" transform="translate(39.1261 89.5042) scale(0.0172414) rotate(-61.0049)"/>
<use xlink:href="#stroke1_48_7" transform="translate(38.8081 86.3768) scale(0.0172414) rotate(-39.574)"/>
<use xlink:href="#stroke1_48_7" transform="translate(39.1792 83.1842) scale(0.0172414) rotate(-16.506)"/>
<use xlink:href="#stroke1_48_7" transform="translate(41.4019 87.6683) scale(0.0172414) rotate(-113.488)"/>
<use xlink:href="#stroke1_48_7" transform="translate(38.6103 82.4904) scale(0.0172414) rotate(-49.4014)"/>
<use xlink:href="#stroke1_48_7" transform="translate(41.0752 76.663) scale(0.0172414) rotate(20.5765)"/>
<use xlink:href="#stroke1_48_7" transform="translate(39.0043 77.328) scale(0.0172414) rotate(-21.1235)"/>
<use xlink:href="#stroke1_48_7" transform="translate(38.7961 78.07) scale(0.0172414) rotate(-52.1473)"/>
<use xlink:href="#stroke1_48_7" transform="translate(41.6361 79.9493) scale(0.0172414) rotate(-112.976)"/>
<use xlink:href="#stroke1_48_7" transform="translate(40.602 71.1066) scale(0.0172414) rotate(5.81243)"/>
<use xlink:href="#stroke1_48_7" transform="translate(39.6317 71.1706) scale(0.0172414) rotate(-20.8498)"/>
<use xlink:href="#stroke1_48_7" transform="translate(42.1824 67.4151) scale(0.0172414) rotate(22.4172)"/>
<use xlink:href="#stroke1_48_7" transform="translate(40.2515 70.5693) scale(0.0172414) rotate(-52.3792)"/>
<use xlink:href="#stroke1_48_7" transform="translate(41.2556 67.707) scale(0.0172414) rotate(-30.4969)"/>
<use xlink:href="#stroke1_48_7" transform="translate(42.4433 68.7843) scale(0.0172414) rotate(-58.2682)"/>
<use xlink:href="#stroke1_48_7" transform="translate(51.2054 64.1781) scale(0.0172414) rotate(94.1257)"/>
<use xlink:href="#stroke1_48_7" transform="translate(53.4456 64.9832) scale(0.0172414) rotate(112.748)"/>
<use xlink:href="#stroke1_48_7" transform="translate(48.1904 63.2978) scale(0.0172414) rotate(4.65432)"/>
<use xlink:href="#stroke1_48_7" transform="translate(47.5502 67.0582) scale(0.0172414) rotate(-51.9686)"/>
<use xlink:href="#stroke1_48_7" transform="translate(59.0263 46.8568) scale(0.0172414) rotate(-40.4541)"/>
<use xlink:href="#stroke1_48_7" transform="translate(63.1899 43.1206) scale(0.0172414) rotate(22.9542)"/>
<use xlink:href="#stroke1_48_7" transform="translate(68.3896 43.4807) scale(0.0172414) rotate(73.5047)"/>
<use xlink:href="#stroke1_48_7" transform="translate(71.8086 49.4639) scale(0.0172414) rotate(159.324)"/>
<use xlink:href="#stroke1_48_7" transform="translate(72.0766 45.2046) scale(0.0172414) rotate(87.0673)"/>
<use xlink:href="#stroke1_48_7" transform="translate(71.5576 45.1865) scale(0.0172414) rotate(60.3088)"/>
<use xlink:href="#stroke1_48_7" transform="translate(71.4484 46.159) scale(0.0172414) rotate(44.4432)"/>
<use xlink:href="#stroke1_48_7" transform="translate(70.5323 47.8668) scale(0.0172414) rotate(19.7923)"/>
<use xlink:href="#stroke1_48_7" transform="translate(75.3317 49.4792) scale(0.0172414) rotate(77.6407)"/>
<use xlink:href="#stroke1_48_7" transform="translate(77.7063 55.3031) scale(0.0172414) rotate(144.862)"/>
<use xlink:href="#stroke1_48_7" transform="translate(76.348 59.5009) scale(0.0172414) rotate(-173.23)"/>
<use xlink:href="#stroke1_48_7" transform="translate(74.59 53.5053) scale(0.0172414) rotate(58.7865)"/>
<use xlink:href="#stroke1_48_7" transform="translate(75.7758 62.8577) scale(0.0172414) rotate(-166.824)"/>
<use xlink:href="#stroke1_48_7" transform="translate(73.8764 65.0296) scale(0.0172414) rotate(-142.118)"/>
<use xlink:href="#stroke1_48_7" transform="translate(74.3889 58.1904) scale(0.0172414) rotate(63.0894)"/>
<use xlink:href="#stroke1_48_7" transform="translate(77.2139 64.3292) scale(0.0172414) rotate(142.422)"/>
<use xlink:href="#stroke1_48_7" transform="translate(74.9383 61.6513) scale(0.0172414) rotate(76.1168)"/>
<use xlink:href="#stroke1_48_7" transform="translate(67.813 67.3693) scale(0.0172414) rotate(-61.2204)"/>
<use xlink:href="#stroke1_48_7" transform="translate(66.8215 68.4391) scale(0.0172414) rotate(-78.2458)"/>
<use xlink:href="#stroke1_48_7" transform="translate(71.0346 69.6727) scale(0.0172414) rotate(-164.763)"/>
<use xlink:href="#stroke1_48_7" transform="translate(71.3391 67.418) scale(0.0172414) rotate(156.129)"/>
<use xlink:href="#stroke1_48_7" transform="translate(69.5495 67.939) scale(0.0172414) rotate(164.115)"/>
<use xlink:href="#stroke1_48_7" transform="translate(68.5209 65.8755) scale(0.0172414) rotate(135.601)"/>
<use xlink:href="#stroke1_48_7" transform="translate(58.7579 67.6886) scale(0.0172414) rotate(-68.7053)"/>
<use xlink:href="#stroke1_48_7" transform="translate(59.7523 70.0093) scale(0.0172414) rotate(-115.505)"/>
<use xlink:href="#stroke1_48_7" transform="translate(58.1335 70.0303) scale(0.0172414) rotate(-114.427)"/>
<use xlink:href="#stroke1_48_7" transform="translate(58.7603 70.2901) scale(0.0172414) rotate(-143.727)"/>
<use xlink:href="#stroke1_48_7" transform="translate(52.4133 67.4611) scale(0.0172414) rotate(-62.2072)"/>
<use xlink:href="#stroke1_48_7" transform="translate(51.9777 66.5793) scale(0.0172414) rotate(-65.5536)"/>
<use xlink:href="#stroke1_48_7" transform="translate(52.2113 61.1236) scale(0.0172414) rotate(-11.0297)"/>
<use xlink:href="#stroke1_48_7" transform="translate(53.6224 58.1439) scale(0.0172414) rotate(17.8123)"/>
<use xlink:href="#stroke1_48_7" transform="translate(52.0326 57.8224) scale(0.0172414) rotate(-7.22193)"/>
<use xlink:href="#stroke1_48_7" transform="translate(51.0889 57.9871) scale(0.0172414) rotate(-32.2548)"/>
<use xlink:href="#stroke1_48_7" transform="translate(51.7421 59.975) scale(0.0172414) rotate(-81.9071)"/>
<use xlink:href="#stroke1_48_7" transform="translate(50.9787 56.6919) scale(0.0172414) rotate(-56.1357)"/>
<use xlink:href="#stroke1_48_7" transform="translate(54.7539 58.5284) scale(0.0172414) rotate(-125.489)"/>
<use xlink:href="#stroke1_48_7" transform="translate(53.3063 49.3345) scale(0.0172414) rotate(9.45364)"/>
<use xlink:href="#stroke1_48_7" transform="translate(52.9198 49.1199) scale(0.0172414) rotate(-11.7953)"/>
<use xlink:href="#stroke1_48_7" transform="translate(56.9443 45.9166) scale(0.0172414) rotate(38.7585)"/>
<use xlink:href="#stroke1_48_7" transform="translate(61.0386 45.5853) scale(0.0172414) rotate(80.5425)"/>
<use xlink:href="#stroke1_48_7" transform="translate(56.2286 45.9524) scale(0.0172414) rotate(-11.7917)"/>
<use xlink:href="#stroke1_48_7" transform="translate(56.9611 47.6209) scale(0.0172414) rotate(-44.2148)"/>
<use xlink:href="#stroke1_48_7" transform="translate(64.1381 43.1456) scale(0.0172414) rotate(64.5666)"/>
<use xlink:href="#stroke1_48_7" transform="translate(77.6459 73.27) scale(0.0172414) rotate(175.01)"/>
<use xlink:href="#stroke1_48_7" transform="translate(72.9586 74.7377) scale(0.0172414) rotate(-136.68)"/>
<use xlink:href="#stroke1_48_7" transform="translate(67.3003 72.0977) scale(0.0172414) rotate(-68.224)"/>
<use xlink:href="#stroke1_48_7" transform="translate(73.2269 72.7228) scale(0.0172414) rotate(170.548)"/>
<use xlink:href="#stroke1_48_7" transform="translate(68.4404 74.509) scale(0.0172414) rotate(-138.087)"/>
<use xlink:href="#stroke1_48_7" transform="translate(69.6324 73.2379) scale(0.0172414) rotate(-178.886)"/>
<use xlink:href="#stroke1_48_7" transform="translate(63.1634 74.0234) scale(0.0172414) rotate(-108.011)"/>
<use xlink:href="#stroke1_48_7" transform="translate(65.417 74.025) scale(0.0172414) rotate(-160.355)"/>
<use xlink:href="#stroke1_48_7" transform="translate(64.5281 73.6481) scale(0.0172414) rotate(-170.555)"/>
<use xlink:href="#stroke1_48_7" transform="translate(64.6891 70.8652) scale(0.0172414) rotate(144.415)"/>
<use xlink:href="#stroke1_48_7" transform="translate(58.1528 74.5195) scale(0.0172414) rotate(-124.306)"/>
<use xlink:href="#stroke1_48_7" transform="translate(61.3521 71.9406) scale(0.0172414) rotate(157.41)"/>
<use xlink:href="#stroke1_48_7" transform="translate(51.5405 70.9947) scale(0.0172414) rotate(-51.4328)"/>
<use xlink:href="#stroke1_48_7" transform="translate(55.3581 74.7311) scale(0.0172414) rotate(-148.814)"/>
<use xlink:href="#stroke1_48_7" transform="translate(56.2319 73.1953) scale(0.0172414) rotate(171.43)"/>
<use xlink:href="#stroke1_48_7" transform="translate(52.0675 75.0256) scale(0.0172414) rotate(-145.888)"/>
<use xlink:href="#stroke1_48_7" transform="translate(53.9623 71.2229) scale(0.0172414) rotate(138.944)"/>
<use xlink:href="#stroke1_48_7" transform="translate(52.5874 72.8928) scale(0.0172414) rotate(149.886)"/>
<use xlink:href="#stroke1_48_7" transform="translate(49.0653 69.1354) scale(0.0172414) rotate(61.751)"/>
<use xlink:href="#stroke1_48_7" transform="translate(51.9388 75.2903) scale(0.0172414) rotate(142.337)"/>
<use xlink:href="#stroke1_48_7" transform="translate(51.7854 76.1506) scale(0.0172414) rotate(133.37)"/>
<use xlink:href="#stroke1_48_7" transform="translate(47.943 73.608) scale(0.0172414) rotate(53.7148)"/>
<use xlink:href="#stroke1_48_7" transform="translate(48.5814 83.5079) scale(0.0172414) rotate(-152.061)"/>
<use xlink:href="#stroke1_48_7" transform="translate(50.4138 78.076) scale(0.0172414) rotate(93.848)"/>
<use xlink:href="#stroke1_48_7" transform="translate(47.1427 78.1935) scale(0.0172414) rotate(44.9163)"/>
<use xlink:href="#stroke1_48_7" transform="translate(50.1978 87.1756) scale(0.0172414) rotate(-177.416)"/>
<use xlink:href="#stroke1_48_7" transform="translate(50.1912 88.7987) scale(0.0172414) rotate(-175.791)"/>
<use xlink:href="#stroke1_48_7" transform="translate(51.5616 85.8119) scale(0.0172414) rotate(118.145)"/>
<use xlink:href="#stroke1_48_7" transform="translate(51.6243 87.0461) scale(0.0172414) rotate(113.908)"/>
<use xlink:href="#stroke1_48_7" transform="translate(52.0861 89.4495) scale(0.0172414) rotate(126.04)"/>
<use xlink:href="#stroke1_48_7" transform="translate(51.5639 94.4188) scale(0.0172414) rotate(175.854)"/>
<use xlink:href="#stroke1_48_7" transform="translate(45.7099 90.4612) scale(0.0172414) rotate(-13.8992)"/>
<use xlink:href="#stroke1_48_7" transform="translate(49.5742 88.7925) scale(0.0172414) rotate(27.2739)"/>
<use xlink:href="#stroke1_48_7" transform="translate(52.5156 88.6915) scale(0.0172414) rotate(46.2738)"/>
<use xlink:href="#stroke1_48_7" transform="translate(55.5217 89.0843) scale(0.0172414) rotate(66.2444)"/>
<use xlink:href="#stroke1_48_7" transform="translate(56.9293 89.1549) scale(0.0172414) rotate(64.3936)"/>
<use xlink:href="#stroke1_48_7" transform="translate(61.4016 93.363) scale(0.0172414) rotate(136.206)"/>
<use xlink:href="#stroke1_48_7" transform="translate(54.4343 92.4927) scale(0.0172414) rotate(-31.8376)"/>
<use xlink:href="#stroke1_48_7" transform="translate(63.1561 90.3646) scale(0.0172414) rotate(89.548)"/>
<use xlink:href="#stroke1_48_7" transform="translate(63.5219 89.6065) scale(0.0172414) rotate(70.516)"/>
<use xlink:href="#stroke1_48_7" transform="translate(64.6896 89.4781) scale(0.0172414) rotate(65.1259)"/>
<use xlink:href="#stroke1_48_7" transform="translate(66.8748 89.7684) scale(0.0172414) rotate(74.4936)"/>
<use xlink:href="#stroke1_48_7" transform="translate(69.8074 90.9635) scale(0.0172414) rotate(99.2088)"/>
<use xlink:href="#stroke1_48_7" transform="translate(63.5926 93.6194) scale(0.0172414) rotate(-45.8266)"/>
<use xlink:href="#stroke1_48_7" transform="translate(65.9423 90.9319) scale(0.0172414) rotate(-8.47861)"/>
<use xlink:href="#stroke1_48_7" transform="translate(69.275 89.4204) scale(0.0172414) rotate(22.496)"/>
<use xlink:href="#stroke1_48_7" transform="translate(68.2153 93.2302) scale(0.0172414) rotate(-43.4863)"/>
<use xlink:href="#stroke1_48_7" transform="translate(69.8031 93.8211) scale(0.0172414) rotate(-52.8334)"/>
<use xlink:href="#stroke1_48_7" transform="translate(75.2412 88.763) scale(0.0172414) rotate(41.0762)"/>
<use xlink:href="#stroke1_48_7" transform="translate(77.3375 88.6309) scale(0.0172414) rotate(48.5102)"/>
<use xlink:href="#stroke1_48_7" transform="translate(76.1392 89.3281) scale(0.0172414) rotate(9.74617)"/>
<use xlink:href="#stroke1_48_7" transform="translate(76.8016 95.0049) scale(0.0172414) rotate(-84.9191)"/>
<use xlink:href="#stroke1_48_7" transform="translate(78.3023 87.4043) scale(0.0172414) rotate(9.83536)"/>
<use xlink:href="#stroke1_48_7" transform="translate(80.8284 93.66) scale(0.0172414) rotate(-131.008)"/>
<use xlink:href="#stroke1_48_7" transform="translate(78.4025 84.6106) scale(0.0172414) rotate(4.25488)"/>
<use xlink:href="#stroke1_48_7" transform="translate(77.8826 83.8218) scale(0.0172414) rotate(-9.10929)"/>
<use xlink:href="#stroke1_48_7" transform="translate(79.6465 80.8754) scale(0.0172414) rotate(20.1763)"/>
<use xlink:href="#stroke1_48_7" transform="translate(77.2648 83.2119) scale(0.0172414) rotate(-44.1614)"/>
<use xlink:href="#stroke1_48_7" transform="translate(78.0431 79.2265) scale(0.0172414) rotate(-9.58142)"/>
<use xlink:href="#stroke1_48_7" transform="translate(77.9653 82.4971) scale(0.0172414) rotate(-77.5846)"/>
<use xlink:href="#stroke1_48_7" transform="translate(78.7542 75.2626) scale(0.0172414) rotate(6.37297)"/>
<use xlink:href="#stroke1_48_7" transform="translate(80.4864 81.2592) scale(0.0172414) rotate(-122.282)"/>
<use xlink:href="#stroke1_48_7" transform="translate(77.477 73.383) scale(0.0172414) rotate(-14.5293)"/>
<use xlink:href="#stroke1_48_7" transform="translate(76.759 74.6135) scale(0.0172414) rotate(-52.614)"/>
<use xlink:href="#stroke1_48_7" transform="translate(79.1145 68.4798) scale(0.0172414) rotate(23.7819)"/>
<use xlink:href="#stroke1_48_7" transform="translate(76.2336 68.8447) scale(0.0172414) rotate(-9.62031)"/>
<use xlink:href="#stroke1_48_7" transform="translate(76.6728 74.8438) scale(0.0172414) rotate(-111.765)"/>
<use xlink:href="#stroke1_48_7" transform="translate(74.083 74.1012) scale(0.0172414) rotate(-95.451)"/>
<use xlink:href="#stroke1_48_7" transform="translate(77.5438 74.2571) scale(0.0172414) rotate(-166.584)"/>
<use xlink:href="#stroke1_48_7" transform="translate(70.0359 71.0521) scale(0.0172414) rotate(-50.8899)"/>
</g>
<defs>
<filter id="filter0_f_48_7" x="3.43323e-05" y="0.000156403" width="238.416" height="279.931" filterUnits="userSpaceOnUse" color-interpolation-filters="sRGB">
<feFlood flood-opacity="0" result="BackgroundImageFix"/>
<feBlend mode="normal" in="SourceGraphic" in2="BackgroundImageFix" result="shape"/>
<feGaussianBlur stdDeviation="19.7601" result="effect1_foregroundBlur_48_7"/>
</filter>
<filter id="filter1_d_48_7" x="18.7201" y="39.5203" width="200.976" height="242.491" filterUnits="userSpaceOnUse" color-interpolation-filters="sRGB">
<feFlood flood-opacity="0" result="BackgroundImageFix"/>
<feColorMatrix in="SourceAlpha" type="matrix" values="0 0 0 0 0 0 0 0 0 0 0 0 0 0 0 0 0 0 127 0" result="hardAlpha"/>
<feOffset dy="20.8001"/>
<feGaussianBlur stdDeviation="10.4"/>
<feComposite in2="hardAlpha" operator="out"/>
<feColorMatrix type="matrix" values="0 0 0 0 0 0 0 0 0 0 0 0 0 0 0 0 0 0 0.25 0"/>
<feBlend mode="normal" in2="BackgroundImageFix" result="effect1_dropShadow_48_7"/>
<feBlend mode="normal" in="SourceGraphic" in2="effect1_dropShadow_48_7" result="shape"/>
</filter>
<g id="stroke0_48_7" data-figma-scatter-ref="stroke0_48_7_ref" data-figma-scatter="f0.25_w0_aj95_sj0_r45_s111288627442208146_sw31.2">
</g>
<path id="stroke0_48_7_ref" d="M105.258 183.061C105.258 178.995 106.905 175.095 109.838 172.219C112.771 169.344 116.749 167.729 120.896 167.729C125.044 167.729 129.022 169.344 131.954 172.219C134.887 175.095 136.535 178.995 136.535 183.061C136.535 187.128 134.887 191.028 131.954 193.903C129.022 196.779 125.044 198.394 120.896 198.394C116.749 198.394 112.771 196.779 109.838 193.903C106.905 191.028 105.258 187.128 105.258 183.061ZM75.2521 127.833L71.9575 98.8129C71.5396 95.0932 71.5396 91.3397 71.9575 87.62L72.1973 85.5245C73.5344 73.7784 79.2408 62.9277 88.2251 55.0475C97.2095 47.1672 108.841 42.8105 120.896 42.8105C132.951 42.8105 144.583 47.1672 153.567 55.0475C162.552 62.9277 168.258 73.7784 169.595 85.5245L169.835 87.62C170.252 91.3476 170.252 95.0785 169.835 98.8129L166.54 127.843L173.703 128.395C179.188 128.823 184.369 131.041 188.417 134.695C192.465 138.349 195.148 143.228 196.035 148.552C199.85 171.406 199.85 194.716 196.035 217.57C195.148 222.895 192.465 227.774 188.417 231.428C184.369 235.082 179.188 237.3 173.703 237.728L158.106 238.954C133.334 240.897 108.458 240.897 83.6865 238.954L68.0896 237.728C62.6043 237.3 57.4235 235.082 53.3753 231.428C49.327 227.774 46.6449 222.895 45.7575 217.57C41.9422 194.716 41.9422 171.406 45.7575 148.552C46.6449 143.228 49.327 138.349 53.3753 134.695C57.4235 131.041 62.6043 128.823 68.0896 128.395L75.2521 127.833ZM116.997 58.3549C121.366 57.8514 125.794 58.2001 130.025 59.3809C134.256 60.5617 138.207 62.5513 141.651 65.2352C145.095 67.919 147.963 71.2442 150.091 75.0193C152.219 78.7943 153.565 82.9447 154.05 87.2316L154.29 89.3271C154.582 91.9234 154.582 94.5266 154.29 97.1365L150.943 126.678C130.932 125.419 110.86 125.419 90.8491 126.678L87.5128 97.1365C87.2222 94.5412 87.2222 91.9224 87.5128 89.3271L87.7422 87.2316C88.5738 79.8858 91.9183 73.0326 97.2307 67.7888C102.543 62.545 109.51 59.2198 116.997 58.3549ZM156.865 142.47C132.924 140.599 108.869 140.599 84.9272 142.47L69.3407 143.697C67.3385 143.85 65.4467 144.657 63.9684 145.99C62.4901 147.323 61.5109 149.103 61.1877 151.047C57.6477 172.256 57.6477 193.888 61.1877 215.097C61.5088 217.042 62.4871 218.825 63.9656 220.159C65.4441 221.494 67.337 222.303 69.3407 222.456L84.9376 223.683C108.875 225.554 132.917 225.554 156.865 223.683L172.462 222.456C174.464 222.301 176.354 221.491 177.831 220.156C179.307 218.822 180.284 217.04 180.605 215.097C184.145 193.888 184.145 172.256 180.605 151.047C180.284 149.103 179.307 147.321 177.831 145.987C176.354 144.652 174.464 143.842 172.462 143.687L156.865 142.47Z"/>
<g id="stroke1_48_7" data-figma-scatter-ref="stroke1_48_7_ref" data-figma-scatter="f0.25_w0_aj95_sj0_r45_s111288627442208146_sw31.2">
</g>
<path id="stroke1_48_7_ref" d="M105.258 183.061C105.258 178.995 106.905 175.095 109.838 172.219C112.771 169.344 116.749 167.729 120.896 167.729C125.044 167.729 129.022 169.344 131.954 172.219C134.887 175.095 136.535 178.995 136.535 183.061C136.535 187.128 134.887 191.028 131.954 193.903C129.022 196.779 125.044 198.394 120.896 198.394C116.749 198.394 112.771 196.779 109.838 193.903C106.905 191.028 105.258 187.128 105.258 183.061ZM75.2521 127.833L71.9575 98.8129C71.5396 95.0932 71.5396 91.3397 71.9575 87.62L72.1973 85.5245C73.5344 73.7784 79.2408 62.9277 88.2251 55.0475C97.2095 47.1672 108.841 42.8105 120.896 42.8105C132.951 42.8105 144.583 47.1672 153.567 55.0475C162.552 62.9277 168.258 73.7784 169.595 85.5245L169.835 87.62C170.252 91.3476 170.252 95.0785 169.835 98.8129L166.54 127.843L173.703 128.395C179.188 128.823 184.369 131.041 188.417 134.695C192.465 138.349 195.148 143.228 196.035 148.552C199.85 171.406 199.85 194.716 196.035 217.57C195.148 222.895 192.465 227.774 188.417 231.428C184.369 235.082 179.188 237.3 173.703 237.728L158.106 238.954C133.334 240.897 108.458 240.897 83.6865 238.954L68.0896 237.728C62.6043 237.3 57.4235 235.082 53.3753 231.428C49.327 227.774 46.6449 222.895 45.7575 217.57C41.9422 194.716 41.9422 171.406 45.7575 148.552C46.6449 143.228 49.327 138.349 53.3753 134.695C57.4235 131.041 62.6043 128.823 68.0896 128.395L75.2521 127.833ZM116.997 58.3549C121.366 57.8514 125.794 58.2001 130.025 59.3809C134.256 60.5617 138.207 62.5513 141.651 65.2352C145.095 67.919 147.963 71.2442 150.091 75.0193C152.219 78.7943 153.565 82.9447 154.05 87.2316L154.29 89.3271C154.582 91.9234 154.582 94.5266 154.29 97.1365L150.943 126.678C130.932 125.419 110.86 125.419 90.8491 126.678L87.5128 97.1365C87.2222 94.5412 87.2222 91.9224 87.5128 89.3271L87.7422 87.2316C88.5738 79.8858 91.9183 73.0326 97.2307 67.7888C102.543 62.545 109.51 59.2198 116.997 58.3549ZM156.865 142.47C132.924 140.599 108.869 140.599 84.9272 142.47L69.3407 143.697C67.3385 143.85 65.4467 144.657 63.9684 145.99C62.4901 147.323 61.5109 149.103 61.1877 151.047C57.6477 172.256 57.6477 193.888 61.1877 215.097C61.5088 217.042 62.4871 218.825 63.9656 220.159C65.4441 221.494 67.337 222.303 69.3407 222.456L84.9376 223.683C108.875 225.554 132.917 225.554 156.865 223.683L172.462 222.456C174.464 222.301 176.354 221.491 177.831 220.156C179.307 218.822 180.284 217.04 180.605 215.097C184.145 193.888 184.145 172.256 180.605 151.047C180.284 149.103 179.307 147.321 177.831 145.987C176.354 144.652 174.464 143.842 172.462 143.687L156.865 142.47Z"/>
</defs>
</svg>
