<svg width="29" height="29" viewBox="0 0 29 29" fill="none" xmlns="http://www.w3.org/2000/svg">
<g filter="url(#filter0_f_43_79)">
<path d="M25.1284 8.32569L19.7752 2.97275C19.6417 2.83875 19.483 2.73242 19.3083 2.65988C19.1335 2.58733 18.9462 2.54999 18.757 2.54999C18.5678 2.54999 18.3805 2.58733 18.2058 2.65988C18.0311 2.73242 17.8724 2.83875 17.7388 2.97275L2.97165 17.744C2.8376 17.8769 2.7313 18.0352 2.65892 18.2095C2.58654 18.3839 2.54952 18.5709 2.55001 18.7597V24.1126C2.55001 24.4938 2.70145 24.8594 2.97102 25.129C3.24059 25.3986 3.60621 25.55 3.98744 25.55H9.34066C9.72159 25.55 10.0869 25.3988 10.3564 25.1296L25.1272 10.3584C25.2612 10.2248 25.3676 10.0661 25.4401 9.89143C25.5127 9.71672 25.55 9.5294 25.55 9.34022C25.55 9.15105 25.5127 8.96373 25.4401 8.78902C25.3676 8.61431 25.2612 8.45563 25.1272 8.3221L25.1284 8.32569ZM3.70714 18.3632L14.5286 7.54114L17.2046 10.2182L6.38315 21.0391L3.70714 18.3632ZM3.50829 24.1126V19.5203L6.04416 22.056L8.58002 24.5918H3.98744C3.86036 24.5918 3.73849 24.5413 3.64863 24.4514C3.55877 24.3616 3.50829 24.2397 3.50829 24.1126ZM9.73715 24.3929L7.06114 21.717L17.8826 10.895L20.5586 13.572L9.73715 24.3929ZM24.4504 9.6804L21.2366 12.8941L15.2066 6.86438L18.4192 3.6507C18.4637 3.60615 18.5166 3.57081 18.5747 3.5467C18.6329 3.52259 18.6952 3.51018 18.7582 3.51018C18.8212 3.51018 18.8835 3.52259 18.9417 3.5467C18.9999 3.57081 19.0527 3.60615 19.0972 3.6507L24.4504 9.00245C24.495 9.04694 24.5303 9.09978 24.5544 9.15795C24.5786 9.21611 24.591 9.27846 24.591 9.34142C24.591 9.40439 24.5786 9.46673 24.5544 9.5249C24.5303 9.58306 24.495 9.6359 24.4504 9.6804Z" fill="#FFEB87"/>
<path d="M25.1284 8.32569L19.7752 2.97275C19.6417 2.83875 19.483 2.73242 19.3083 2.65988C19.1335 2.58733 18.9462 2.54999 18.757 2.54999C18.5678 2.54999 18.3805 2.58733 18.2058 2.65988C18.0311 2.73242 17.8724 2.83875 17.7388 2.97275L2.97165 17.744C2.8376 17.8769 2.7313 18.0352 2.65892 18.2095C2.58654 18.3839 2.54952 18.5709 2.55001 18.7597V24.1126C2.55001 24.4938 2.70145 24.8594 2.97102 25.129C3.24059 25.3986 3.60621 25.55 3.98744 25.55H9.34066C9.72159 25.55 10.0869 25.3988 10.3564 25.1296L25.1272 10.3584C25.2612 10.2248 25.3676 10.0661 25.4401 9.89143C25.5127 9.71672 25.55 9.5294 25.55 9.34022C25.55 9.15105 25.5127 8.96373 25.4401 8.78902C25.3676 8.61431 25.2612 8.45563 25.1272 8.3221L25.1284 8.32569ZM3.70714 18.3632L14.5286 7.54114L17.2046 10.2182L6.38315 21.0391L3.70714 18.3632ZM3.50829 24.1126V19.5203L6.04416 22.056L8.58002 24.5918H3.98744C3.86036 24.5918 3.73849 24.5413 3.64863 24.4514C3.55877 24.3616 3.50829 24.2397 3.50829 24.1126ZM9.73715 24.3929L7.06114 21.717L17.8826 10.895L20.5586 13.572L9.73715 24.3929ZM24.4504 9.6804L21.2366 12.8941L15.2066 6.86438L18.4192 3.6507C18.4637 3.60615 18.5166 3.57081 18.5747 3.5467C18.6329 3.52259 18.6952 3.51018 18.7582 3.51018C18.8212 3.51018 18.8835 3.52259 18.9417 3.5467C18.9999 3.57081 19.0527 3.60615 19.0972 3.6507L24.4504 9.00245C24.495 9.04694 24.5303 9.09978 24.5544 9.15795C24.5786 9.21611 24.591 9.27846 24.591 9.34142C24.591 9.40439 24.5786 9.46673 24.5544 9.5249C24.5303 9.58306 24.495 9.6359 24.4504 9.6804Z" stroke="#FFF5C0" stroke-width="0.7"/>
</g>
<path d="M25.1284 8.32569L19.7752 2.97275C19.6417 2.83875 19.483 2.73242 19.3083 2.65988C19.1335 2.58733 18.9462 2.54999 18.757 2.54999C18.5678 2.54999 18.3805 2.58733 18.2058 2.65988C18.0311 2.73242 17.8724 2.83875 17.7388 2.97275L2.97165 17.744C2.8376 17.8769 2.7313 18.0352 2.65892 18.2095C2.58654 18.3839 2.54952 18.5709 2.55001 18.7597V24.1126C2.55001 24.4938 2.70145 24.8594 2.97102 25.129C3.24059 25.3986 3.60621 25.55 3.98744 25.55H9.34066C9.72159 25.55 10.0869 25.3988 10.3564 25.1296L25.1272 10.3584C25.2612 10.2248 25.3676 10.0661 25.4401 9.89143C25.5127 9.71672 25.55 9.5294 25.55 9.34022C25.55 9.15105 25.5127 8.96373 25.4401 8.78902C25.3676 8.61431 25.2612 8.45563 25.1272 8.3221L25.1284 8.32569ZM3.70714 18.3632L14.5286 7.54114L17.2046 10.2182L6.38315 21.0391L3.70714 18.3632ZM3.50829 24.1126V19.5203L6.04416 22.056L8.58002 24.5918H3.98744C3.86036 24.5918 3.73849 24.5413 3.64863 24.4514C3.55877 24.3616 3.50829 24.2397 3.50829 24.1126ZM9.73715 24.3929L7.06114 21.717L17.8826 10.895L20.5586 13.572L9.73715 24.3929ZM24.4504 9.6804L21.2366 12.8941L15.2066 6.86438L18.4192 3.6507C18.4637 3.60615 18.5166 3.57081 18.5747 3.5467C18.6329 3.52259 18.6952 3.51018 18.7582 3.51018C18.8212 3.51018 18.8835 3.52259 18.9417 3.5467C18.9999 3.57081 19.0527 3.60615 19.0972 3.6507L24.4504 9.00245C24.495 9.04694 24.5303 9.09978 24.5544 9.15795C24.5786 9.21611 24.591 9.27846 24.591 9.34142C24.591 9.40439 24.5786 9.46673 24.5544 9.5249C24.5303 9.58306 24.495 9.6359 24.4504 9.6804Z" fill="#FFEB87" stroke="#FFEB87" stroke-width="0.7"/>
<defs>
<filter id="filter0_f_43_79" x="-3.09944e-06" y="1.21593e-05" width="28.1" height="28.1" filterUnits="userSpaceOnUse" color-interpolation-filters="sRGB">
<feFlood flood-opacity="0" result="BackgroundImageFix"/>
<feBlend mode="normal" in="SourceGraphic" in2="BackgroundImageFix" result="shape"/>
<feGaussianBlur stdDeviation="1.1" result="effect1_foregroundBlur_43_79"/>
</filter>
</defs>
</svg>
