<svg width="32" height="32" viewBox="0 0 32 32" fill="none" xmlns="http://www.w3.org/2000/svg">
<g filter="url(#filter0_f_37_52)">
<path d="M20.1787 4C20.8706 4 21.5342 4.27543 22.0234 4.76465L26.7139 9.45508C27.2031 9.94431 27.4785 10.6079 27.4785 11.2998V24.8701C27.4783 26.3105 26.3105 27.4783 24.8701 27.4785H6.6084C5.168 27.4783 4.00023 26.3105 4 24.8701V6.6084C4.00026 5.16802 5.16801 4.00023 6.6084 4H20.1787ZM6.6084 5.73926C6.1285 5.73949 5.73952 6.12851 5.73926 6.6084V24.8701L5.74414 24.959C5.78587 25.3679 6.11062 25.6926 6.51953 25.7344L6.6084 25.7393H24.8701L24.959 25.7344C25.3679 25.6926 25.6926 25.3679 25.7344 24.959L25.7393 24.8701V11.2998C25.7393 11.0979 25.669 10.9028 25.542 10.748L25.4844 10.6846L21.3916 6.5918V10.0869C21.3916 11.0473 20.6127 11.826 19.6523 11.8262H10.0869C9.12661 11.8259 8.34863 11.0473 8.34863 10.0869V5.73926H6.6084ZM17.2607 14.4346C18.5998 14.4346 19.6522 15.4626 19.6523 16.7803C19.6523 18.3881 18.1737 19.7065 15.9346 21.6982L15.3047 22.2607L14.6738 21.6982C12.4347 19.7065 10.957 18.3881 10.957 16.7803C10.9572 15.4627 12.0088 14.4347 13.3477 14.4346C14.1042 14.4346 14.8308 14.7806 15.3047 15.3223C15.7786 14.7807 16.5043 14.4346 17.2607 14.4346ZM10.0869 10.0869H19.6523V5.73926H10.0869V10.0869Z" fill="#FFAEAE"/>
</g>
<path d="M20.4395 4.63086C20.9007 4.63086 21.3438 4.8135 21.6699 5.13965L26.3604 9.83008C26.6865 10.1562 26.8691 10.5993 26.8691 11.0605V24.6309C26.8689 25.591 26.091 26.3689 25.1309 26.3691H6.86914C5.90898 26.3689 5.13109 25.591 5.13086 24.6309V6.36914C5.13109 5.40898 5.90898 4.63109 6.86914 4.63086H20.4395Z" stroke="#FFE0E0" stroke-width="1.73913"/>
<g filter="url(#filter1_d_37_52)">
<path d="M20.7826 5.5V9.84783C20.7826 10.3281 20.3933 10.7174 19.9131 10.7174H10.3478C9.86759 10.7174 9.47827 10.3281 9.47827 9.84783V5.5" stroke="#FFE0E0" stroke-width="1.73913"/>
</g>
<path d="M17.5221 14.6302C18.6294 14.6304 19.4781 15.4721 19.4781 16.5414C19.4781 17.1995 19.1795 17.8341 18.5602 18.5775C17.9361 19.3264 17.0351 20.1306 15.9068 21.1342H15.9059L15.565 21.4379L15.2242 21.1342L14.4205 20.4164C13.662 19.732 13.0389 19.1391 12.5709 18.5775C11.9513 17.834 11.6519 17.1996 11.6519 16.5414C11.6519 15.472 12.5015 14.6302 13.609 14.6302C14.237 14.6303 14.8446 14.92 15.2379 15.3695L15.565 15.7435L15.8922 15.3695C16.2855 14.92 16.8939 14.6302 17.5221 14.6302Z" fill="#FFE0E0" stroke="#FFE0E0" stroke-width="0.869565"/>
<defs>
<filter id="filter0_f_37_52" x="0" y="0" width="31.4785" height="31.4785" filterUnits="userSpaceOnUse" color-interpolation-filters="sRGB">
<feFlood flood-opacity="0" result="BackgroundImageFix"/>
<feBlend mode="normal" in="SourceGraphic" in2="BackgroundImageFix" result="shape"/>
<feGaussianBlur stdDeviation="2" result="effect1_foregroundBlur_37_52"/>
</filter>
<filter id="filter1_d_37_52" x="5.13044" y="5.5" width="20" height="13.0435" filterUnits="userSpaceOnUse" color-interpolation-filters="sRGB">
<feFlood flood-opacity="0" result="BackgroundImageFix"/>
<feColorMatrix in="SourceAlpha" type="matrix" values="0 0 0 0 0 0 0 0 0 0 0 0 0 0 0 0 0 0 127 0" result="hardAlpha"/>
<feOffset dy="3.47826"/>
<feGaussianBlur stdDeviation="1.73913"/>
<feComposite in2="hardAlpha" operator="out"/>
<feColorMatrix type="matrix" values="0 0 0 0 0 0 0 0 0 0 0 0 0 0 0 0 0 0 0.25 0"/>
<feBlend mode="normal" in2="BackgroundImageFix" result="effect1_dropShadow_37_52"/>
<feBlend mode="normal" in="SourceGraphic" in2="effect1_dropShadow_37_52" result="shape"/>
</filter>
</defs>
</svg>
