<svg width="41" height="49" viewBox="0 0 41 49" fill="none" xmlns="http://www.w3.org/2000/svg" xmlns:xlink="http://www.w3.org/1999/xlink">
<g filter="url(#filter0_f_22_193)">
<path d="M17.6334 31.1142C17.6334 30.4104 17.9185 29.7354 18.4261 29.2377C18.9337 28.74 19.6222 28.4604 20.34 28.4604C21.0579 28.4604 21.7464 28.74 22.254 29.2377C22.7616 29.7354 23.0467 30.4104 23.0467 31.1142C23.0467 31.818 22.7616 32.493 22.254 32.9907C21.7464 33.4883 21.0579 33.7679 20.34 33.7679C19.6222 33.7679 18.9337 33.4883 18.4261 32.9907C17.9185 32.493 17.6334 31.818 17.6334 31.1142Z" fill="#F7E06D"/>
<path fill-rule="evenodd" clip-rule="evenodd" d="M12.4401 21.5554L11.8699 16.5327C11.7976 15.8889 11.7976 15.2393 11.8699 14.5955L11.9114 14.2328C12.1428 12.1998 13.1305 10.3218 14.6854 8.95796C16.2404 7.59407 18.2536 6.84003 20.34 6.84003C22.4265 6.84003 24.4397 7.59407 25.9946 8.95796C27.5496 10.3218 28.5373 12.1998 28.7687 14.2328L28.8102 14.5955C28.8824 15.2407 28.8824 15.8864 28.8102 16.5327L28.24 21.5572L29.4796 21.6527C30.429 21.7267 31.3257 22.1106 32.0264 22.7431C32.727 23.3755 33.1912 24.22 33.3448 25.1415C34.0052 29.097 34.0052 33.1314 33.3448 37.0869C33.1912 38.0084 32.727 38.8529 32.0264 39.4853C31.3257 40.1178 30.429 40.5017 29.4796 40.5757L26.7802 40.788C22.4928 41.1241 18.1873 41.1241 13.8999 40.788L11.2004 40.5757C10.2511 40.5017 9.3544 40.1178 8.65373 39.4853C7.95307 38.8529 7.48886 38.0084 7.33528 37.0869C6.67493 33.1314 6.67493 29.097 7.33528 25.1415C7.48886 24.22 7.95307 23.3755 8.65373 22.7431C9.3544 22.1106 10.2511 21.7267 11.2004 21.6527L12.4401 21.5554ZM19.6652 9.53039C20.4214 9.44324 21.1877 9.5036 21.92 9.70797C22.6523 9.91234 23.3362 10.2567 23.9323 10.7212C24.5283 11.1857 25.0248 11.7612 25.3931 12.4146C25.7614 13.068 25.9942 13.7863 26.0782 14.5283L26.1197 14.891C26.1703 15.3403 26.1703 15.7909 26.1197 16.2426L25.5405 21.3555C22.0771 21.1376 18.603 21.1376 15.1396 21.3555L14.5622 16.2426C14.5118 15.7934 14.5118 15.3402 14.5622 14.891L14.6019 14.5283C14.7458 13.2569 15.3246 12.0708 16.2441 11.1632C17.1636 10.2556 18.3694 9.68008 19.6652 9.53039ZM26.5654 24.0888C22.4218 23.7649 18.2583 23.7649 14.1146 24.0888L11.417 24.3011C11.0705 24.3276 10.743 24.4674 10.4872 24.698C10.2313 24.9287 10.0618 25.2368 10.0059 25.5732C9.3932 29.244 9.3932 32.988 10.0059 36.6588C10.0615 36.9954 10.2308 37.304 10.4867 37.535C10.7426 37.766 11.0702 37.906 11.417 37.9326L14.1165 38.1449C18.2595 38.4686 22.4206 38.4686 26.5654 38.1449L29.2649 37.9326C29.6114 37.9056 29.9386 37.7655 30.1941 37.5345C30.4497 37.3035 30.6187 36.9951 30.6742 36.6588C31.2869 32.988 31.2869 29.244 30.6742 25.5732C30.6187 25.2368 30.4497 24.9284 30.1941 24.6975C29.9386 24.4665 29.6114 24.3263 29.2649 24.2994L26.5654 24.0888Z" fill="#F7E06D"/>
</g>
<g filter="url(#filter1_d_22_193)">
<path d="M17.6334 31.1142C17.6334 30.4104 17.9185 29.7354 18.4261 29.2377C18.9337 28.74 19.6222 28.4604 20.34 28.4604C21.0579 28.4604 21.7464 28.74 22.254 29.2377C22.7616 29.7354 23.0467 30.4104 23.0467 31.1142C23.0467 31.818 22.7616 32.493 22.254 32.9907C21.7464 33.4883 21.0579 33.7679 20.34 33.7679C19.6222 33.7679 18.9337 33.4883 18.4261 32.9907C17.9185 32.493 17.6334 31.818 17.6334 31.1142Z" fill="#F5E7A0"/>
<path fill-rule="evenodd" clip-rule="evenodd" d="M12.4401 21.5554L11.8699 16.5327C11.7976 15.8889 11.7976 15.2393 11.8699 14.5955L11.9114 14.2328C12.1428 12.1998 13.1305 10.3218 14.6854 8.95796C16.2404 7.59407 18.2536 6.84003 20.34 6.84003C22.4265 6.84003 24.4397 7.59407 25.9946 8.95796C27.5496 10.3218 28.5373 12.1998 28.7687 14.2328L28.8102 14.5955C28.8824 15.2407 28.8824 15.8864 28.8102 16.5327L28.24 21.5572L29.4796 21.6527C30.429 21.7267 31.3257 22.1106 32.0264 22.7431C32.727 23.3755 33.1912 24.22 33.3448 25.1415C34.0052 29.097 34.0052 33.1314 33.3448 37.0869C33.1912 38.0084 32.727 38.8529 32.0264 39.4853C31.3257 40.1178 30.429 40.5017 29.4796 40.5757L26.7802 40.788C22.4928 41.1241 18.1873 41.1241 13.8999 40.788L11.2004 40.5757C10.2511 40.5017 9.3544 40.1178 8.65373 39.4853C7.95307 38.8529 7.48886 38.0084 7.33528 37.0869C6.67493 33.1314 6.67493 29.097 7.33528 25.1415C7.48886 24.22 7.95307 23.3755 8.65373 22.7431C9.3544 22.1106 10.2511 21.7267 11.2004 21.6527L12.4401 21.5554ZM19.6652 9.53039C20.4214 9.44324 21.1877 9.5036 21.92 9.70797C22.6523 9.91234 23.3362 10.2567 23.9323 10.7212C24.5283 11.1857 25.0248 11.7612 25.3931 12.4146C25.7614 13.068 25.9942 13.7863 26.0782 14.5283L26.1197 14.891C26.1703 15.3403 26.1703 15.7909 26.1197 16.2426L25.5405 21.3555C22.0771 21.1376 18.603 21.1376 15.1396 21.3555L14.5622 16.2426C14.5118 15.7934 14.5118 15.3402 14.5622 14.891L14.6019 14.5283C14.7458 13.2569 15.3246 12.0708 16.2441 11.1632C17.1636 10.2556 18.3694 9.68008 19.6652 9.53039ZM26.5654 24.0888C22.4218 23.7649 18.2583 23.7649 14.1146 24.0888L11.417 24.3011C11.0705 24.3276 10.743 24.4674 10.4872 24.698C10.2313 24.9287 10.0618 25.2368 10.0059 25.5732C9.3932 29.244 9.3932 32.988 10.0059 36.6588C10.0615 36.9954 10.2308 37.304 10.4867 37.535C10.7426 37.766 11.0702 37.906 11.417 37.9326L14.1165 38.1449C18.2595 38.4686 22.4206 38.4686 26.5654 38.1449L29.2649 37.9326C29.6114 37.9056 29.9386 37.7655 30.1941 37.5345C30.4497 37.3035 30.6187 36.9951 30.6742 36.6588C31.2869 32.988 31.2869 29.244 30.6742 25.5732C30.6187 25.2368 30.4497 24.9284 30.1941 24.6975C29.9386 24.4665 29.6114 24.3263 29.2649 24.2994L26.5654 24.0888Z" fill="#F5E7A0"/>
</g>
<defs>
<filter id="filter0_f_22_193" x="0" y="1.14441e-05" width="40.6801" height="47.8801" filterUnits="userSpaceOnUse" color-interpolation-filters="sRGB">
<feFlood flood-opacity="0" result="BackgroundImageFix"/>
<feBlend mode="normal" in="SourceGraphic" in2="BackgroundImageFix" result="shape"/>
<feGaussianBlur stdDeviation="3.42001" result="effect1_foregroundBlur_22_193"/>
</filter>
<filter id="filter1_d_22_193" x="3.24001" y="6.84003" width="34.2001" height="41.4001" filterUnits="userSpaceOnUse" color-interpolation-filters="sRGB">
<feFlood flood-opacity="0" result="BackgroundImageFix"/>
<feColorMatrix in="SourceAlpha" type="matrix" values="0 0 0 0 0 0 0 0 0 0 0 0 0 0 0 0 0 0 127 0" result="hardAlpha"/>
<feOffset dy="3.60001"/>
<feGaussianBlur stdDeviation="1.8"/>
<feComposite in2="hardAlpha" operator="out"/>
<feColorMatrix type="matrix" values="0 0 0 0 0 0 0 0 0 0 0 0 0 0 0 0 0 0 0.25 0"/>
<feBlend mode="normal" in2="BackgroundImageFix" result="effect1_dropShadow_22_193"/>
<feBlend mode="normal" in="SourceGraphic" in2="effect1_dropShadow_22_193" result="shape"/>
</filter>
<g id="stroke0_22_193" data-figma-scatter-ref="stroke0_22_193_ref" data-figma-scatter="f0.25_w0_aj95_sj0_r45_s111288627442208146_sw5.4">
</g>
<path id="stroke0_22_193_ref" d="M17.6334 31.1142C17.6334 30.4104 17.9185 29.7354 18.4261 29.2377C18.9337 28.74 19.6222 28.4604 20.34 28.4604C21.0579 28.4604 21.7464 28.74 22.254 29.2377C22.7616 29.7354 23.0467 30.4104 23.0467 31.1142C23.0467 31.818 22.7616 32.493 22.254 32.9907C21.7464 33.4883 21.0579 33.7679 20.34 33.7679C19.6222 33.7679 18.9337 33.4883 18.4261 32.9907C17.9185 32.493 17.6334 31.818 17.6334 31.1142ZM12.4401 21.5554L11.8699 16.5327C11.7976 15.8889 11.7976 15.2393 11.8699 14.5955L11.9114 14.2328C12.1428 12.1998 13.1305 10.3218 14.6854 8.95796C16.2404 7.59407 18.2536 6.84003 20.34 6.84003C22.4265 6.84003 24.4397 7.59407 25.9946 8.95796C27.5496 10.3218 28.5373 12.1998 28.7687 14.2328L28.8102 14.5955C28.8824 15.2407 28.8824 15.8864 28.8102 16.5327L28.24 21.5572L29.4796 21.6527C30.429 21.7267 31.3257 22.1106 32.0264 22.7431C32.727 23.3755 33.1912 24.22 33.3448 25.1415C34.0052 29.097 34.0052 33.1314 33.3448 37.0869C33.1912 38.0084 32.727 38.8529 32.0264 39.4853C31.3257 40.1178 30.429 40.5017 29.4796 40.5757L26.7802 40.788C22.4928 41.1241 18.1873 41.1241 13.8999 40.788L11.2004 40.5757C10.2511 40.5017 9.3544 40.1178 8.65373 39.4853C7.95307 38.8529 7.48886 38.0084 7.33528 37.0869C6.67493 33.1314 6.67493 29.097 7.33528 25.1415C7.48886 24.22 7.95307 23.3755 8.65373 22.7431C9.3544 22.1106 10.2511 21.7267 11.2004 21.6527L12.4401 21.5554ZM19.6652 9.53039C20.4214 9.44324 21.1877 9.5036 21.92 9.70797C22.6523 9.91234 23.3362 10.2567 23.9323 10.7212C24.5283 11.1857 25.0248 11.7612 25.3931 12.4146C25.7614 13.068 25.9942 13.7863 26.0782 14.5283L26.1197 14.891C26.1703 15.3403 26.1703 15.7909 26.1197 16.2426L25.5405 21.3555C22.0771 21.1376 18.603 21.1376 15.1396 21.3555L14.5622 16.2426C14.5118 15.7934 14.5118 15.3402 14.5622 14.891L14.6019 14.5283C14.7458 13.2569 15.3246 12.0708 16.2441 11.1632C17.1636 10.2556 18.3694 9.68008 19.6652 9.53039ZM26.5654 24.0888C22.4218 23.7649 18.2583 23.7649 14.1146 24.0888L11.417 24.3011C11.0705 24.3276 10.743 24.4674 10.4872 24.698C10.2313 24.9287 10.0618 25.2368 10.0059 25.5732C9.3932 29.244 9.3932 32.988 10.0059 36.6588C10.0615 36.9954 10.2308 37.304 10.4867 37.535C10.7426 37.766 11.0702 37.906 11.417 37.9326L14.1165 38.1449C18.2595 38.4686 22.4206 38.4686 26.5654 38.1449L29.2649 37.9326C29.6114 37.9056 29.9386 37.7655 30.1941 37.5345C30.4497 37.3035 30.6187 36.9951 30.6742 36.6588C31.2869 32.988 31.2869 29.244 30.6742 25.5732C30.6187 25.2368 30.4497 24.9284 30.1941 24.6975C29.9386 24.4665 29.6114 24.3263 29.2649 24.2994L26.5654 24.0888Z"/>
<g id="stroke1_22_193" data-figma-scatter-ref="stroke1_22_193_ref" data-figma-scatter="f0.25_w0_aj95_sj0_r45_s111288627442208146_sw5.4">
</g>
<path id="stroke1_22_193_ref" d="M17.6334 31.1142C17.6334 30.4104 17.9185 29.7354 18.4261 29.2377C18.9337 28.74 19.6222 28.4604 20.34 28.4604C21.0579 28.4604 21.7464 28.74 22.254 29.2377C22.7616 29.7354 23.0467 30.4104 23.0467 31.1142C23.0467 31.818 22.7616 32.493 22.254 32.9907C21.7464 33.4883 21.0579 33.7679 20.34 33.7679C19.6222 33.7679 18.9337 33.4883 18.4261 32.9907C17.9185 32.493 17.6334 31.818 17.6334 31.1142ZM12.4401 21.5554L11.8699 16.5327C11.7976 15.8889 11.7976 15.2393 11.8699 14.5955L11.9114 14.2328C12.1428 12.1998 13.1305 10.3218 14.6854 8.95796C16.2404 7.59407 18.2536 6.84003 20.34 6.84003C22.4265 6.84003 24.4397 7.59407 25.9946 8.95796C27.5496 10.3218 28.5373 12.1998 28.7687 14.2328L28.8102 14.5955C28.8824 15.2407 28.8824 15.8864 28.8102 16.5327L28.24 21.5572L29.4796 21.6527C30.429 21.7267 31.3257 22.1106 32.0264 22.7431C32.727 23.3755 33.1912 24.22 33.3448 25.1415C34.0052 29.097 34.0052 33.1314 33.3448 37.0869C33.1912 38.0084 32.727 38.8529 32.0264 39.4853C31.3257 40.1178 30.429 40.5017 29.4796 40.5757L26.7802 40.788C22.4928 41.1241 18.1873 41.1241 13.8999 40.788L11.2004 40.5757C10.2511 40.5017 9.3544 40.1178 8.65373 39.4853C7.95307 38.8529 7.48886 38.0084 7.33528 37.0869C6.67493 33.1314 6.67493 29.097 7.33528 25.1415C7.48886 24.22 7.95307 23.3755 8.65373 22.7431C9.3544 22.1106 10.2511 21.7267 11.2004 21.6527L12.4401 21.5554ZM19.6652 9.53039C20.4214 9.44324 21.1877 9.5036 21.92 9.70797C22.6523 9.91234 23.3362 10.2567 23.9323 10.7212C24.5283 11.1857 25.0248 11.7612 25.3931 12.4146C25.7614 13.068 25.9942 13.7863 26.0782 14.5283L26.1197 14.891C26.1703 15.3403 26.1703 15.7909 26.1197 16.2426L25.5405 21.3555C22.0771 21.1376 18.603 21.1376 15.1396 21.3555L14.5622 16.2426C14.5118 15.7934 14.5118 15.3402 14.5622 14.891L14.6019 14.5283C14.7458 13.2569 15.3246 12.0708 16.2441 11.1632C17.1636 10.2556 18.3694 9.68008 19.6652 9.53039ZM26.5654 24.0888C22.4218 23.7649 18.2583 23.7649 14.1146 24.0888L11.417 24.3011C11.0705 24.3276 10.743 24.4674 10.4872 24.698C10.2313 24.9287 10.0618 25.2368 10.0059 25.5732C9.3932 29.244 9.3932 32.988 10.0059 36.6588C10.0615 36.9954 10.2308 37.304 10.4867 37.535C10.7426 37.766 11.0702 37.906 11.417 37.9326L14.1165 38.1449C18.2595 38.4686 22.4206 38.4686 26.5654 38.1449L29.2649 37.9326C29.6114 37.9056 29.9386 37.7655 30.1941 37.5345C30.4497 37.3035 30.6187 36.9951 30.6742 36.6588C31.2869 32.988 31.2869 29.244 30.6742 25.5732C30.6187 25.2368 30.4497 24.9284 30.1941 24.6975C29.9386 24.4665 29.6114 24.3263 29.2649 24.2994L26.5654 24.0888Z"/>
</defs>
</svg>
